%TF.GenerationSoftware,KiCad,Pcbnew,7.0.1*%
%TF.CreationDate,2023-05-02T23:50:35+02:00*%
%TF.ProjectId,espilepsy,65737069-6c65-4707-9379-2e6b69636164,rev?*%
%TF.SameCoordinates,Original*%
%TF.FileFunction,Legend,Top*%
%TF.FilePolarity,Positive*%
%FSLAX46Y46*%
G04 Gerber Fmt 4.6, Leading zero omitted, Abs format (unit mm)*
G04 Created by KiCad (PCBNEW 7.0.1) date 2023-05-02 23:50:35*
%MOMM*%
%LPD*%
G01*
G04 APERTURE LIST*
G04 Aperture macros list*
%AMRoundRect*
0 Rectangle with rounded corners*
0 $1 Rounding radius*
0 $2 $3 $4 $5 $6 $7 $8 $9 X,Y pos of 4 corners*
0 Add a 4 corners polygon primitive as box body*
4,1,4,$2,$3,$4,$5,$6,$7,$8,$9,$2,$3,0*
0 Add four circle primitives for the rounded corners*
1,1,$1+$1,$2,$3*
1,1,$1+$1,$4,$5*
1,1,$1+$1,$6,$7*
1,1,$1+$1,$8,$9*
0 Add four rect primitives between the rounded corners*
20,1,$1+$1,$2,$3,$4,$5,0*
20,1,$1+$1,$4,$5,$6,$7,0*
20,1,$1+$1,$6,$7,$8,$9,0*
20,1,$1+$1,$8,$9,$2,$3,0*%
G04 Aperture macros list end*
%ADD10C,0.150000*%
%ADD11C,0.120000*%
%ADD12RoundRect,0.150000X-0.150000X0.587500X-0.150000X-0.587500X0.150000X-0.587500X0.150000X0.587500X0*%
%ADD13RoundRect,0.575000X-0.575000X-0.575000X0.575000X-0.575000X0.575000X0.575000X-0.575000X0.575000X0*%
%ADD14C,2.300000*%
%ADD15R,2.600000X2.600000*%
%ADD16C,2.600000*%
%ADD17RoundRect,0.237500X0.237500X-0.250000X0.237500X0.250000X-0.237500X0.250000X-0.237500X-0.250000X0*%
%ADD18RoundRect,0.250000X0.337500X0.475000X-0.337500X0.475000X-0.337500X-0.475000X0.337500X-0.475000X0*%
%ADD19C,2.700000*%
%ADD20RoundRect,0.237500X-0.237500X0.250000X-0.237500X-0.250000X0.237500X-0.250000X0.237500X0.250000X0*%
%ADD21R,1.500000X0.900000*%
%ADD22R,0.900000X1.500000*%
%ADD23C,0.600000*%
%ADD24R,3.800000X3.800000*%
%ADD25R,1.500000X2.000000*%
%ADD26R,3.800000X2.000000*%
%ADD27R,1.700000X1.700000*%
%ADD28O,1.700000X1.700000*%
%ADD29R,1.560000X0.650000*%
%ADD30RoundRect,0.237500X0.250000X0.237500X-0.250000X0.237500X-0.250000X-0.237500X0.250000X-0.237500X0*%
%ADD31RoundRect,0.150000X-0.150000X0.825000X-0.150000X-0.825000X0.150000X-0.825000X0.150000X0.825000X0*%
G04 APERTURE END LIST*
D10*
X66953523Y-53533619D02*
X66953523Y-52533619D01*
X67286856Y-52866952D02*
X67667808Y-52866952D01*
X67429713Y-53533619D02*
X67429713Y-52676476D01*
X67429713Y-52676476D02*
X67477332Y-52581238D01*
X67477332Y-52581238D02*
X67572570Y-52533619D01*
X67572570Y-52533619D02*
X67667808Y-52533619D01*
X68667809Y-52866952D02*
X68905904Y-53533619D01*
X69143999Y-52866952D02*
X68905904Y-53533619D01*
X68905904Y-53533619D02*
X68810666Y-53771714D01*
X68810666Y-53771714D02*
X68763047Y-53819333D01*
X68763047Y-53819333D02*
X68667809Y-53866952D01*
X69667809Y-53533619D02*
X69572571Y-53486000D01*
X69572571Y-53486000D02*
X69524952Y-53438380D01*
X69524952Y-53438380D02*
X69477333Y-53343142D01*
X69477333Y-53343142D02*
X69477333Y-53057428D01*
X69477333Y-53057428D02*
X69524952Y-52962190D01*
X69524952Y-52962190D02*
X69572571Y-52914571D01*
X69572571Y-52914571D02*
X69667809Y-52866952D01*
X69667809Y-52866952D02*
X69810666Y-52866952D01*
X69810666Y-52866952D02*
X69905904Y-52914571D01*
X69905904Y-52914571D02*
X69953523Y-52962190D01*
X69953523Y-52962190D02*
X70001142Y-53057428D01*
X70001142Y-53057428D02*
X70001142Y-53343142D01*
X70001142Y-53343142D02*
X69953523Y-53438380D01*
X69953523Y-53438380D02*
X69905904Y-53486000D01*
X69905904Y-53486000D02*
X69810666Y-53533619D01*
X69810666Y-53533619D02*
X69667809Y-53533619D01*
X70858285Y-52866952D02*
X70858285Y-53533619D01*
X70429714Y-52866952D02*
X70429714Y-53390761D01*
X70429714Y-53390761D02*
X70477333Y-53486000D01*
X70477333Y-53486000D02*
X70572571Y-53533619D01*
X70572571Y-53533619D02*
X70715428Y-53533619D01*
X70715428Y-53533619D02*
X70810666Y-53486000D01*
X70810666Y-53486000D02*
X70858285Y-53438380D01*
X72524952Y-53486000D02*
X72429714Y-53533619D01*
X72429714Y-53533619D02*
X72239238Y-53533619D01*
X72239238Y-53533619D02*
X72144000Y-53486000D01*
X72144000Y-53486000D02*
X72096381Y-53438380D01*
X72096381Y-53438380D02*
X72048762Y-53343142D01*
X72048762Y-53343142D02*
X72048762Y-53057428D01*
X72048762Y-53057428D02*
X72096381Y-52962190D01*
X72096381Y-52962190D02*
X72144000Y-52914571D01*
X72144000Y-52914571D02*
X72239238Y-52866952D01*
X72239238Y-52866952D02*
X72429714Y-52866952D01*
X72429714Y-52866952D02*
X72524952Y-52914571D01*
X73382095Y-53533619D02*
X73382095Y-53009809D01*
X73382095Y-53009809D02*
X73334476Y-52914571D01*
X73334476Y-52914571D02*
X73239238Y-52866952D01*
X73239238Y-52866952D02*
X73048762Y-52866952D01*
X73048762Y-52866952D02*
X72953524Y-52914571D01*
X73382095Y-53486000D02*
X73286857Y-53533619D01*
X73286857Y-53533619D02*
X73048762Y-53533619D01*
X73048762Y-53533619D02*
X72953524Y-53486000D01*
X72953524Y-53486000D02*
X72905905Y-53390761D01*
X72905905Y-53390761D02*
X72905905Y-53295523D01*
X72905905Y-53295523D02*
X72953524Y-53200285D01*
X72953524Y-53200285D02*
X73048762Y-53152666D01*
X73048762Y-53152666D02*
X73286857Y-53152666D01*
X73286857Y-53152666D02*
X73382095Y-53105047D01*
X73858286Y-52866952D02*
X73858286Y-53533619D01*
X73858286Y-52962190D02*
X73905905Y-52914571D01*
X73905905Y-52914571D02*
X74001143Y-52866952D01*
X74001143Y-52866952D02*
X74144000Y-52866952D01*
X74144000Y-52866952D02*
X74239238Y-52914571D01*
X74239238Y-52914571D02*
X74286857Y-53009809D01*
X74286857Y-53009809D02*
X74286857Y-53533619D01*
X75524953Y-53533619D02*
X75524953Y-52866952D01*
X75524953Y-53057428D02*
X75572572Y-52962190D01*
X75572572Y-52962190D02*
X75620191Y-52914571D01*
X75620191Y-52914571D02*
X75715429Y-52866952D01*
X75715429Y-52866952D02*
X75810667Y-52866952D01*
X76524953Y-53486000D02*
X76429715Y-53533619D01*
X76429715Y-53533619D02*
X76239239Y-53533619D01*
X76239239Y-53533619D02*
X76144001Y-53486000D01*
X76144001Y-53486000D02*
X76096382Y-53390761D01*
X76096382Y-53390761D02*
X76096382Y-53009809D01*
X76096382Y-53009809D02*
X76144001Y-52914571D01*
X76144001Y-52914571D02*
X76239239Y-52866952D01*
X76239239Y-52866952D02*
X76429715Y-52866952D01*
X76429715Y-52866952D02*
X76524953Y-52914571D01*
X76524953Y-52914571D02*
X76572572Y-53009809D01*
X76572572Y-53009809D02*
X76572572Y-53105047D01*
X76572572Y-53105047D02*
X76096382Y-53200285D01*
X77429715Y-53533619D02*
X77429715Y-53009809D01*
X77429715Y-53009809D02*
X77382096Y-52914571D01*
X77382096Y-52914571D02*
X77286858Y-52866952D01*
X77286858Y-52866952D02*
X77096382Y-52866952D01*
X77096382Y-52866952D02*
X77001144Y-52914571D01*
X77429715Y-53486000D02*
X77334477Y-53533619D01*
X77334477Y-53533619D02*
X77096382Y-53533619D01*
X77096382Y-53533619D02*
X77001144Y-53486000D01*
X77001144Y-53486000D02*
X76953525Y-53390761D01*
X76953525Y-53390761D02*
X76953525Y-53295523D01*
X76953525Y-53295523D02*
X77001144Y-53200285D01*
X77001144Y-53200285D02*
X77096382Y-53152666D01*
X77096382Y-53152666D02*
X77334477Y-53152666D01*
X77334477Y-53152666D02*
X77429715Y-53105047D01*
X78334477Y-53533619D02*
X78334477Y-52533619D01*
X78334477Y-53486000D02*
X78239239Y-53533619D01*
X78239239Y-53533619D02*
X78048763Y-53533619D01*
X78048763Y-53533619D02*
X77953525Y-53486000D01*
X77953525Y-53486000D02*
X77905906Y-53438380D01*
X77905906Y-53438380D02*
X77858287Y-53343142D01*
X77858287Y-53343142D02*
X77858287Y-53057428D01*
X77858287Y-53057428D02*
X77905906Y-52962190D01*
X77905906Y-52962190D02*
X77953525Y-52914571D01*
X77953525Y-52914571D02*
X78048763Y-52866952D01*
X78048763Y-52866952D02*
X78239239Y-52866952D01*
X78239239Y-52866952D02*
X78334477Y-52914571D01*
X66810666Y-54486952D02*
X67191618Y-54486952D01*
X66953523Y-54153619D02*
X66953523Y-55010761D01*
X66953523Y-55010761D02*
X67001142Y-55106000D01*
X67001142Y-55106000D02*
X67096380Y-55153619D01*
X67096380Y-55153619D02*
X67191618Y-55153619D01*
X67524952Y-55153619D02*
X67524952Y-54153619D01*
X67953523Y-55153619D02*
X67953523Y-54629809D01*
X67953523Y-54629809D02*
X67905904Y-54534571D01*
X67905904Y-54534571D02*
X67810666Y-54486952D01*
X67810666Y-54486952D02*
X67667809Y-54486952D01*
X67667809Y-54486952D02*
X67572571Y-54534571D01*
X67572571Y-54534571D02*
X67524952Y-54582190D01*
X68429714Y-55153619D02*
X68429714Y-54486952D01*
X68429714Y-54153619D02*
X68382095Y-54201238D01*
X68382095Y-54201238D02*
X68429714Y-54248857D01*
X68429714Y-54248857D02*
X68477333Y-54201238D01*
X68477333Y-54201238D02*
X68429714Y-54153619D01*
X68429714Y-54153619D02*
X68429714Y-54248857D01*
X68858285Y-55106000D02*
X68953523Y-55153619D01*
X68953523Y-55153619D02*
X69143999Y-55153619D01*
X69143999Y-55153619D02*
X69239237Y-55106000D01*
X69239237Y-55106000D02*
X69286856Y-55010761D01*
X69286856Y-55010761D02*
X69286856Y-54963142D01*
X69286856Y-54963142D02*
X69239237Y-54867904D01*
X69239237Y-54867904D02*
X69143999Y-54820285D01*
X69143999Y-54820285D02*
X69001142Y-54820285D01*
X69001142Y-54820285D02*
X68905904Y-54772666D01*
X68905904Y-54772666D02*
X68858285Y-54677428D01*
X68858285Y-54677428D02*
X68858285Y-54629809D01*
X68858285Y-54629809D02*
X68905904Y-54534571D01*
X68905904Y-54534571D02*
X69001142Y-54486952D01*
X69001142Y-54486952D02*
X69143999Y-54486952D01*
X69143999Y-54486952D02*
X69239237Y-54534571D01*
X69763047Y-55106000D02*
X69763047Y-55153619D01*
X69763047Y-55153619D02*
X69715428Y-55248857D01*
X69715428Y-55248857D02*
X69667809Y-55296476D01*
X70810666Y-54486952D02*
X71191618Y-54486952D01*
X70953523Y-54153619D02*
X70953523Y-55010761D01*
X70953523Y-55010761D02*
X71001142Y-55106000D01*
X71001142Y-55106000D02*
X71096380Y-55153619D01*
X71096380Y-55153619D02*
X71191618Y-55153619D01*
X71524952Y-55153619D02*
X71524952Y-54153619D01*
X71953523Y-55153619D02*
X71953523Y-54629809D01*
X71953523Y-54629809D02*
X71905904Y-54534571D01*
X71905904Y-54534571D02*
X71810666Y-54486952D01*
X71810666Y-54486952D02*
X71667809Y-54486952D01*
X71667809Y-54486952D02*
X71572571Y-54534571D01*
X71572571Y-54534571D02*
X71524952Y-54582190D01*
X72810666Y-55106000D02*
X72715428Y-55153619D01*
X72715428Y-55153619D02*
X72524952Y-55153619D01*
X72524952Y-55153619D02*
X72429714Y-55106000D01*
X72429714Y-55106000D02*
X72382095Y-55010761D01*
X72382095Y-55010761D02*
X72382095Y-54629809D01*
X72382095Y-54629809D02*
X72429714Y-54534571D01*
X72429714Y-54534571D02*
X72524952Y-54486952D01*
X72524952Y-54486952D02*
X72715428Y-54486952D01*
X72715428Y-54486952D02*
X72810666Y-54534571D01*
X72810666Y-54534571D02*
X72858285Y-54629809D01*
X72858285Y-54629809D02*
X72858285Y-54725047D01*
X72858285Y-54725047D02*
X72382095Y-54820285D01*
X74048762Y-54629809D02*
X74382095Y-54629809D01*
X74524952Y-55153619D02*
X74048762Y-55153619D01*
X74048762Y-55153619D02*
X74048762Y-54153619D01*
X74048762Y-54153619D02*
X74524952Y-54153619D01*
X74905905Y-55106000D02*
X75048762Y-55153619D01*
X75048762Y-55153619D02*
X75286857Y-55153619D01*
X75286857Y-55153619D02*
X75382095Y-55106000D01*
X75382095Y-55106000D02*
X75429714Y-55058380D01*
X75429714Y-55058380D02*
X75477333Y-54963142D01*
X75477333Y-54963142D02*
X75477333Y-54867904D01*
X75477333Y-54867904D02*
X75429714Y-54772666D01*
X75429714Y-54772666D02*
X75382095Y-54725047D01*
X75382095Y-54725047D02*
X75286857Y-54677428D01*
X75286857Y-54677428D02*
X75096381Y-54629809D01*
X75096381Y-54629809D02*
X75001143Y-54582190D01*
X75001143Y-54582190D02*
X74953524Y-54534571D01*
X74953524Y-54534571D02*
X74905905Y-54439333D01*
X74905905Y-54439333D02*
X74905905Y-54344095D01*
X74905905Y-54344095D02*
X74953524Y-54248857D01*
X74953524Y-54248857D02*
X75001143Y-54201238D01*
X75001143Y-54201238D02*
X75096381Y-54153619D01*
X75096381Y-54153619D02*
X75334476Y-54153619D01*
X75334476Y-54153619D02*
X75477333Y-54201238D01*
X75905905Y-55153619D02*
X75905905Y-54153619D01*
X75905905Y-54153619D02*
X76286857Y-54153619D01*
X76286857Y-54153619D02*
X76382095Y-54201238D01*
X76382095Y-54201238D02*
X76429714Y-54248857D01*
X76429714Y-54248857D02*
X76477333Y-54344095D01*
X76477333Y-54344095D02*
X76477333Y-54486952D01*
X76477333Y-54486952D02*
X76429714Y-54582190D01*
X76429714Y-54582190D02*
X76382095Y-54629809D01*
X76382095Y-54629809D02*
X76286857Y-54677428D01*
X76286857Y-54677428D02*
X75905905Y-54677428D01*
X76810667Y-54153619D02*
X77429714Y-54153619D01*
X77429714Y-54153619D02*
X77096381Y-54534571D01*
X77096381Y-54534571D02*
X77239238Y-54534571D01*
X77239238Y-54534571D02*
X77334476Y-54582190D01*
X77334476Y-54582190D02*
X77382095Y-54629809D01*
X77382095Y-54629809D02*
X77429714Y-54725047D01*
X77429714Y-54725047D02*
X77429714Y-54963142D01*
X77429714Y-54963142D02*
X77382095Y-55058380D01*
X77382095Y-55058380D02*
X77334476Y-55106000D01*
X77334476Y-55106000D02*
X77239238Y-55153619D01*
X77239238Y-55153619D02*
X76953524Y-55153619D01*
X76953524Y-55153619D02*
X76858286Y-55106000D01*
X76858286Y-55106000D02*
X76810667Y-55058380D01*
X77810667Y-54248857D02*
X77858286Y-54201238D01*
X77858286Y-54201238D02*
X77953524Y-54153619D01*
X77953524Y-54153619D02*
X78191619Y-54153619D01*
X78191619Y-54153619D02*
X78286857Y-54201238D01*
X78286857Y-54201238D02*
X78334476Y-54248857D01*
X78334476Y-54248857D02*
X78382095Y-54344095D01*
X78382095Y-54344095D02*
X78382095Y-54439333D01*
X78382095Y-54439333D02*
X78334476Y-54582190D01*
X78334476Y-54582190D02*
X77763048Y-55153619D01*
X77763048Y-55153619D02*
X78382095Y-55153619D01*
X69858285Y-56106952D02*
X70239237Y-56106952D01*
X70001142Y-56773619D02*
X70001142Y-55916476D01*
X70001142Y-55916476D02*
X70048761Y-55821238D01*
X70048761Y-55821238D02*
X70143999Y-55773619D01*
X70143999Y-55773619D02*
X70239237Y-55773619D01*
X70953523Y-56726000D02*
X70858285Y-56773619D01*
X70858285Y-56773619D02*
X70667809Y-56773619D01*
X70667809Y-56773619D02*
X70572571Y-56726000D01*
X70572571Y-56726000D02*
X70524952Y-56630761D01*
X70524952Y-56630761D02*
X70524952Y-56249809D01*
X70524952Y-56249809D02*
X70572571Y-56154571D01*
X70572571Y-56154571D02*
X70667809Y-56106952D01*
X70667809Y-56106952D02*
X70858285Y-56106952D01*
X70858285Y-56106952D02*
X70953523Y-56154571D01*
X70953523Y-56154571D02*
X71001142Y-56249809D01*
X71001142Y-56249809D02*
X71001142Y-56345047D01*
X71001142Y-56345047D02*
X70524952Y-56440285D01*
X71572571Y-56773619D02*
X71477333Y-56726000D01*
X71477333Y-56726000D02*
X71429714Y-56630761D01*
X71429714Y-56630761D02*
X71429714Y-55773619D01*
X72096381Y-56773619D02*
X72001143Y-56726000D01*
X72001143Y-56726000D02*
X71953524Y-56630761D01*
X71953524Y-56630761D02*
X71953524Y-55773619D01*
X73382096Y-56773619D02*
X73286858Y-56726000D01*
X73286858Y-56726000D02*
X73239239Y-56678380D01*
X73239239Y-56678380D02*
X73191620Y-56583142D01*
X73191620Y-56583142D02*
X73191620Y-56297428D01*
X73191620Y-56297428D02*
X73239239Y-56202190D01*
X73239239Y-56202190D02*
X73286858Y-56154571D01*
X73286858Y-56154571D02*
X73382096Y-56106952D01*
X73382096Y-56106952D02*
X73524953Y-56106952D01*
X73524953Y-56106952D02*
X73620191Y-56154571D01*
X73620191Y-56154571D02*
X73667810Y-56202190D01*
X73667810Y-56202190D02*
X73715429Y-56297428D01*
X73715429Y-56297428D02*
X73715429Y-56583142D01*
X73715429Y-56583142D02*
X73667810Y-56678380D01*
X73667810Y-56678380D02*
X73620191Y-56726000D01*
X73620191Y-56726000D02*
X73524953Y-56773619D01*
X73524953Y-56773619D02*
X73382096Y-56773619D01*
X74001144Y-56106952D02*
X74382096Y-56106952D01*
X74144001Y-56773619D02*
X74144001Y-55916476D01*
X74144001Y-55916476D02*
X74191620Y-55821238D01*
X74191620Y-55821238D02*
X74286858Y-55773619D01*
X74286858Y-55773619D02*
X74382096Y-55773619D01*
X74572573Y-56106952D02*
X74953525Y-56106952D01*
X74715430Y-56773619D02*
X74715430Y-55916476D01*
X74715430Y-55916476D02*
X74763049Y-55821238D01*
X74763049Y-55821238D02*
X74858287Y-55773619D01*
X74858287Y-55773619D02*
X74953525Y-55773619D01*
X75286859Y-56678380D02*
X75334478Y-56726000D01*
X75334478Y-56726000D02*
X75286859Y-56773619D01*
X75286859Y-56773619D02*
X75239240Y-56726000D01*
X75239240Y-56726000D02*
X75286859Y-56678380D01*
X75286859Y-56678380D02*
X75286859Y-56773619D01*
X92796000Y-77978000D02*
X94320000Y-77978000D01*
X94320000Y-83058000D01*
X92796000Y-83058000D01*
X92796000Y-77978000D01*
X67544000Y-105326000D02*
X82276000Y-105326000D01*
X82276000Y-107104000D01*
X67544000Y-107104000D01*
X67544000Y-105326000D01*
X82784000Y-105326000D02*
X92436000Y-105326000D01*
X92436000Y-107104000D01*
X82784000Y-107104000D01*
X82784000Y-105326000D01*
X52304000Y-105326000D02*
X67036000Y-105326000D01*
X67036000Y-107104000D01*
X52304000Y-107104000D01*
X52304000Y-105326000D01*
X84308095Y-105775238D02*
X84212857Y-105727619D01*
X84212857Y-105727619D02*
X84070000Y-105727619D01*
X84070000Y-105727619D02*
X83927143Y-105775238D01*
X83927143Y-105775238D02*
X83831905Y-105870476D01*
X83831905Y-105870476D02*
X83784286Y-105965714D01*
X83784286Y-105965714D02*
X83736667Y-106156190D01*
X83736667Y-106156190D02*
X83736667Y-106299047D01*
X83736667Y-106299047D02*
X83784286Y-106489523D01*
X83784286Y-106489523D02*
X83831905Y-106584761D01*
X83831905Y-106584761D02*
X83927143Y-106680000D01*
X83927143Y-106680000D02*
X84070000Y-106727619D01*
X84070000Y-106727619D02*
X84165238Y-106727619D01*
X84165238Y-106727619D02*
X84308095Y-106680000D01*
X84308095Y-106680000D02*
X84355714Y-106632380D01*
X84355714Y-106632380D02*
X84355714Y-106299047D01*
X84355714Y-106299047D02*
X84165238Y-106299047D01*
X84784286Y-106727619D02*
X84784286Y-105727619D01*
X84784286Y-105727619D02*
X85355714Y-106727619D01*
X85355714Y-106727619D02*
X85355714Y-105727619D01*
X85831905Y-106727619D02*
X85831905Y-105727619D01*
X85831905Y-105727619D02*
X86070000Y-105727619D01*
X86070000Y-105727619D02*
X86212857Y-105775238D01*
X86212857Y-105775238D02*
X86308095Y-105870476D01*
X86308095Y-105870476D02*
X86355714Y-105965714D01*
X86355714Y-105965714D02*
X86403333Y-106156190D01*
X86403333Y-106156190D02*
X86403333Y-106299047D01*
X86403333Y-106299047D02*
X86355714Y-106489523D01*
X86355714Y-106489523D02*
X86308095Y-106584761D01*
X86308095Y-106584761D02*
X86212857Y-106680000D01*
X86212857Y-106680000D02*
X86070000Y-106727619D01*
X86070000Y-106727619D02*
X85831905Y-106727619D01*
X93859523Y-74553619D02*
X93526190Y-74077428D01*
X93288095Y-74553619D02*
X93288095Y-73553619D01*
X93288095Y-73553619D02*
X93669047Y-73553619D01*
X93669047Y-73553619D02*
X93764285Y-73601238D01*
X93764285Y-73601238D02*
X93811904Y-73648857D01*
X93811904Y-73648857D02*
X93859523Y-73744095D01*
X93859523Y-73744095D02*
X93859523Y-73886952D01*
X93859523Y-73886952D02*
X93811904Y-73982190D01*
X93811904Y-73982190D02*
X93764285Y-74029809D01*
X93764285Y-74029809D02*
X93669047Y-74077428D01*
X93669047Y-74077428D02*
X93288095Y-74077428D01*
X64416667Y-105727619D02*
X64750000Y-106727619D01*
X64750000Y-106727619D02*
X65083333Y-105727619D01*
X69496667Y-105727619D02*
X69830000Y-106727619D01*
X69830000Y-106727619D02*
X70163333Y-105727619D01*
X93145238Y-71013619D02*
X93716666Y-71013619D01*
X93430952Y-72013619D02*
X93430952Y-71013619D01*
X79228095Y-105775238D02*
X79132857Y-105727619D01*
X79132857Y-105727619D02*
X78990000Y-105727619D01*
X78990000Y-105727619D02*
X78847143Y-105775238D01*
X78847143Y-105775238D02*
X78751905Y-105870476D01*
X78751905Y-105870476D02*
X78704286Y-105965714D01*
X78704286Y-105965714D02*
X78656667Y-106156190D01*
X78656667Y-106156190D02*
X78656667Y-106299047D01*
X78656667Y-106299047D02*
X78704286Y-106489523D01*
X78704286Y-106489523D02*
X78751905Y-106584761D01*
X78751905Y-106584761D02*
X78847143Y-106680000D01*
X78847143Y-106680000D02*
X78990000Y-106727619D01*
X78990000Y-106727619D02*
X79085238Y-106727619D01*
X79085238Y-106727619D02*
X79228095Y-106680000D01*
X79228095Y-106680000D02*
X79275714Y-106632380D01*
X79275714Y-106632380D02*
X79275714Y-106299047D01*
X79275714Y-106299047D02*
X79085238Y-106299047D01*
X79704286Y-106727619D02*
X79704286Y-105727619D01*
X79704286Y-105727619D02*
X80275714Y-106727619D01*
X80275714Y-106727619D02*
X80275714Y-105727619D01*
X80751905Y-106727619D02*
X80751905Y-105727619D01*
X80751905Y-105727619D02*
X80990000Y-105727619D01*
X80990000Y-105727619D02*
X81132857Y-105775238D01*
X81132857Y-105775238D02*
X81228095Y-105870476D01*
X81228095Y-105870476D02*
X81275714Y-105965714D01*
X81275714Y-105965714D02*
X81323333Y-106156190D01*
X81323333Y-106156190D02*
X81323333Y-106299047D01*
X81323333Y-106299047D02*
X81275714Y-106489523D01*
X81275714Y-106489523D02*
X81228095Y-106584761D01*
X81228095Y-106584761D02*
X81132857Y-106680000D01*
X81132857Y-106680000D02*
X80990000Y-106727619D01*
X80990000Y-106727619D02*
X80751905Y-106727619D01*
X93811904Y-76141238D02*
X93716666Y-76093619D01*
X93716666Y-76093619D02*
X93573809Y-76093619D01*
X93573809Y-76093619D02*
X93430952Y-76141238D01*
X93430952Y-76141238D02*
X93335714Y-76236476D01*
X93335714Y-76236476D02*
X93288095Y-76331714D01*
X93288095Y-76331714D02*
X93240476Y-76522190D01*
X93240476Y-76522190D02*
X93240476Y-76665047D01*
X93240476Y-76665047D02*
X93288095Y-76855523D01*
X93288095Y-76855523D02*
X93335714Y-76950761D01*
X93335714Y-76950761D02*
X93430952Y-77046000D01*
X93430952Y-77046000D02*
X93573809Y-77093619D01*
X93573809Y-77093619D02*
X93669047Y-77093619D01*
X93669047Y-77093619D02*
X93811904Y-77046000D01*
X93811904Y-77046000D02*
X93859523Y-76998380D01*
X93859523Y-76998380D02*
X93859523Y-76665047D01*
X93859523Y-76665047D02*
X93669047Y-76665047D01*
X89054762Y-105727619D02*
X89388095Y-106727619D01*
X89388095Y-106727619D02*
X89721428Y-105727619D01*
X90054762Y-106727619D02*
X90054762Y-105727619D01*
X90530952Y-106727619D02*
X90530952Y-105727619D01*
X90530952Y-105727619D02*
X91102380Y-106727619D01*
X91102380Y-106727619D02*
X91102380Y-105727619D01*
X73910000Y-106727619D02*
X73910000Y-105727619D01*
X74576666Y-105727619D02*
X74767142Y-105727619D01*
X74767142Y-105727619D02*
X74862380Y-105775238D01*
X74862380Y-105775238D02*
X74957618Y-105870476D01*
X74957618Y-105870476D02*
X75005237Y-106060952D01*
X75005237Y-106060952D02*
X75005237Y-106394285D01*
X75005237Y-106394285D02*
X74957618Y-106584761D01*
X74957618Y-106584761D02*
X74862380Y-106680000D01*
X74862380Y-106680000D02*
X74767142Y-106727619D01*
X74767142Y-106727619D02*
X74576666Y-106727619D01*
X74576666Y-106727619D02*
X74481428Y-106680000D01*
X74481428Y-106680000D02*
X74386190Y-106584761D01*
X74386190Y-106584761D02*
X74338571Y-106394285D01*
X74338571Y-106394285D02*
X74338571Y-106060952D01*
X74338571Y-106060952D02*
X74386190Y-105870476D01*
X74386190Y-105870476D02*
X74481428Y-105775238D01*
X74481428Y-105775238D02*
X74576666Y-105727619D01*
X75862380Y-106060952D02*
X75862380Y-106727619D01*
X75624285Y-105680000D02*
X75386190Y-106394285D01*
X75386190Y-106394285D02*
X76005237Y-106394285D01*
X68087809Y-70886619D02*
X68087809Y-71600904D01*
X68087809Y-71600904D02*
X68040190Y-71743761D01*
X68040190Y-71743761D02*
X67944952Y-71839000D01*
X67944952Y-71839000D02*
X67802095Y-71886619D01*
X67802095Y-71886619D02*
X67706857Y-71886619D01*
X69040190Y-71886619D02*
X68564000Y-71886619D01*
X68564000Y-71886619D02*
X68564000Y-70886619D01*
X69944952Y-71791380D02*
X69897333Y-71839000D01*
X69897333Y-71839000D02*
X69754476Y-71886619D01*
X69754476Y-71886619D02*
X69659238Y-71886619D01*
X69659238Y-71886619D02*
X69516381Y-71839000D01*
X69516381Y-71839000D02*
X69421143Y-71743761D01*
X69421143Y-71743761D02*
X69373524Y-71648523D01*
X69373524Y-71648523D02*
X69325905Y-71458047D01*
X69325905Y-71458047D02*
X69325905Y-71315190D01*
X69325905Y-71315190D02*
X69373524Y-71124714D01*
X69373524Y-71124714D02*
X69421143Y-71029476D01*
X69421143Y-71029476D02*
X69516381Y-70934238D01*
X69516381Y-70934238D02*
X69659238Y-70886619D01*
X69659238Y-70886619D02*
X69754476Y-70886619D01*
X69754476Y-70886619D02*
X69897333Y-70934238D01*
X69897333Y-70934238D02*
X69944952Y-70981857D01*
X70659238Y-70886619D02*
X70659238Y-71600904D01*
X70659238Y-71600904D02*
X70611619Y-71743761D01*
X70611619Y-71743761D02*
X70516381Y-71839000D01*
X70516381Y-71839000D02*
X70373524Y-71886619D01*
X70373524Y-71886619D02*
X70278286Y-71886619D01*
X71611619Y-71886619D02*
X71135429Y-71886619D01*
X71135429Y-71886619D02*
X71135429Y-70886619D01*
X72516381Y-71791380D02*
X72468762Y-71839000D01*
X72468762Y-71839000D02*
X72325905Y-71886619D01*
X72325905Y-71886619D02*
X72230667Y-71886619D01*
X72230667Y-71886619D02*
X72087810Y-71839000D01*
X72087810Y-71839000D02*
X71992572Y-71743761D01*
X71992572Y-71743761D02*
X71944953Y-71648523D01*
X71944953Y-71648523D02*
X71897334Y-71458047D01*
X71897334Y-71458047D02*
X71897334Y-71315190D01*
X71897334Y-71315190D02*
X71944953Y-71124714D01*
X71944953Y-71124714D02*
X71992572Y-71029476D01*
X71992572Y-71029476D02*
X72087810Y-70934238D01*
X72087810Y-70934238D02*
X72230667Y-70886619D01*
X72230667Y-70886619D02*
X72325905Y-70886619D01*
X72325905Y-70886619D02*
X72468762Y-70934238D01*
X72468762Y-70934238D02*
X72516381Y-70981857D01*
X73230667Y-70886619D02*
X73230667Y-71600904D01*
X73230667Y-71600904D02*
X73183048Y-71743761D01*
X73183048Y-71743761D02*
X73087810Y-71839000D01*
X73087810Y-71839000D02*
X72944953Y-71886619D01*
X72944953Y-71886619D02*
X72849715Y-71886619D01*
X74183048Y-71886619D02*
X73706858Y-71886619D01*
X73706858Y-71886619D02*
X73706858Y-70886619D01*
X75087810Y-71791380D02*
X75040191Y-71839000D01*
X75040191Y-71839000D02*
X74897334Y-71886619D01*
X74897334Y-71886619D02*
X74802096Y-71886619D01*
X74802096Y-71886619D02*
X74659239Y-71839000D01*
X74659239Y-71839000D02*
X74564001Y-71743761D01*
X74564001Y-71743761D02*
X74516382Y-71648523D01*
X74516382Y-71648523D02*
X74468763Y-71458047D01*
X74468763Y-71458047D02*
X74468763Y-71315190D01*
X74468763Y-71315190D02*
X74516382Y-71124714D01*
X74516382Y-71124714D02*
X74564001Y-71029476D01*
X74564001Y-71029476D02*
X74659239Y-70934238D01*
X74659239Y-70934238D02*
X74802096Y-70886619D01*
X74802096Y-70886619D02*
X74897334Y-70886619D01*
X74897334Y-70886619D02*
X75040191Y-70934238D01*
X75040191Y-70934238D02*
X75087810Y-70981857D01*
X75802096Y-70886619D02*
X75802096Y-71600904D01*
X75802096Y-71600904D02*
X75754477Y-71743761D01*
X75754477Y-71743761D02*
X75659239Y-71839000D01*
X75659239Y-71839000D02*
X75516382Y-71886619D01*
X75516382Y-71886619D02*
X75421144Y-71886619D01*
X76754477Y-71886619D02*
X76278287Y-71886619D01*
X76278287Y-71886619D02*
X76278287Y-70886619D01*
X77659239Y-71791380D02*
X77611620Y-71839000D01*
X77611620Y-71839000D02*
X77468763Y-71886619D01*
X77468763Y-71886619D02*
X77373525Y-71886619D01*
X77373525Y-71886619D02*
X77230668Y-71839000D01*
X77230668Y-71839000D02*
X77135430Y-71743761D01*
X77135430Y-71743761D02*
X77087811Y-71648523D01*
X77087811Y-71648523D02*
X77040192Y-71458047D01*
X77040192Y-71458047D02*
X77040192Y-71315190D01*
X77040192Y-71315190D02*
X77087811Y-71124714D01*
X77087811Y-71124714D02*
X77135430Y-71029476D01*
X77135430Y-71029476D02*
X77230668Y-70934238D01*
X77230668Y-70934238D02*
X77373525Y-70886619D01*
X77373525Y-70886619D02*
X77468763Y-70886619D01*
X77468763Y-70886619D02*
X77611620Y-70934238D01*
X77611620Y-70934238D02*
X77659239Y-70981857D01*
X93478571Y-78633619D02*
X93573809Y-78633619D01*
X93573809Y-78633619D02*
X93669047Y-78681238D01*
X93669047Y-78681238D02*
X93716666Y-78728857D01*
X93716666Y-78728857D02*
X93764285Y-78824095D01*
X93764285Y-78824095D02*
X93811904Y-79014571D01*
X93811904Y-79014571D02*
X93811904Y-79252666D01*
X93811904Y-79252666D02*
X93764285Y-79443142D01*
X93764285Y-79443142D02*
X93716666Y-79538380D01*
X93716666Y-79538380D02*
X93669047Y-79586000D01*
X93669047Y-79586000D02*
X93573809Y-79633619D01*
X93573809Y-79633619D02*
X93478571Y-79633619D01*
X93478571Y-79633619D02*
X93383333Y-79586000D01*
X93383333Y-79586000D02*
X93335714Y-79538380D01*
X93335714Y-79538380D02*
X93288095Y-79443142D01*
X93288095Y-79443142D02*
X93240476Y-79252666D01*
X93240476Y-79252666D02*
X93240476Y-79014571D01*
X93240476Y-79014571D02*
X93288095Y-78824095D01*
X93288095Y-78824095D02*
X93335714Y-78728857D01*
X93335714Y-78728857D02*
X93383333Y-78681238D01*
X93383333Y-78681238D02*
X93478571Y-78633619D01*
X53828095Y-105775238D02*
X53732857Y-105727619D01*
X53732857Y-105727619D02*
X53590000Y-105727619D01*
X53590000Y-105727619D02*
X53447143Y-105775238D01*
X53447143Y-105775238D02*
X53351905Y-105870476D01*
X53351905Y-105870476D02*
X53304286Y-105965714D01*
X53304286Y-105965714D02*
X53256667Y-106156190D01*
X53256667Y-106156190D02*
X53256667Y-106299047D01*
X53256667Y-106299047D02*
X53304286Y-106489523D01*
X53304286Y-106489523D02*
X53351905Y-106584761D01*
X53351905Y-106584761D02*
X53447143Y-106680000D01*
X53447143Y-106680000D02*
X53590000Y-106727619D01*
X53590000Y-106727619D02*
X53685238Y-106727619D01*
X53685238Y-106727619D02*
X53828095Y-106680000D01*
X53828095Y-106680000D02*
X53875714Y-106632380D01*
X53875714Y-106632380D02*
X53875714Y-106299047D01*
X53875714Y-106299047D02*
X53685238Y-106299047D01*
X54304286Y-106727619D02*
X54304286Y-105727619D01*
X54304286Y-105727619D02*
X54875714Y-106727619D01*
X54875714Y-106727619D02*
X54875714Y-105727619D01*
X55351905Y-106727619D02*
X55351905Y-105727619D01*
X55351905Y-105727619D02*
X55590000Y-105727619D01*
X55590000Y-105727619D02*
X55732857Y-105775238D01*
X55732857Y-105775238D02*
X55828095Y-105870476D01*
X55828095Y-105870476D02*
X55875714Y-105965714D01*
X55875714Y-105965714D02*
X55923333Y-106156190D01*
X55923333Y-106156190D02*
X55923333Y-106299047D01*
X55923333Y-106299047D02*
X55875714Y-106489523D01*
X55875714Y-106489523D02*
X55828095Y-106584761D01*
X55828095Y-106584761D02*
X55732857Y-106680000D01*
X55732857Y-106680000D02*
X55590000Y-106727619D01*
X55590000Y-106727619D02*
X55351905Y-106727619D01*
X93811904Y-81221238D02*
X93716666Y-81173619D01*
X93716666Y-81173619D02*
X93573809Y-81173619D01*
X93573809Y-81173619D02*
X93430952Y-81221238D01*
X93430952Y-81221238D02*
X93335714Y-81316476D01*
X93335714Y-81316476D02*
X93288095Y-81411714D01*
X93288095Y-81411714D02*
X93240476Y-81602190D01*
X93240476Y-81602190D02*
X93240476Y-81745047D01*
X93240476Y-81745047D02*
X93288095Y-81935523D01*
X93288095Y-81935523D02*
X93335714Y-82030761D01*
X93335714Y-82030761D02*
X93430952Y-82126000D01*
X93430952Y-82126000D02*
X93573809Y-82173619D01*
X93573809Y-82173619D02*
X93669047Y-82173619D01*
X93669047Y-82173619D02*
X93811904Y-82126000D01*
X93811904Y-82126000D02*
X93859523Y-82078380D01*
X93859523Y-82078380D02*
X93859523Y-81745047D01*
X93859523Y-81745047D02*
X93669047Y-81745047D01*
X93145238Y-68473619D02*
X93478571Y-69473619D01*
X93478571Y-69473619D02*
X93811904Y-68473619D01*
X58193810Y-106727619D02*
X58193810Y-105727619D01*
X58860476Y-105727619D02*
X59050952Y-105727619D01*
X59050952Y-105727619D02*
X59146190Y-105775238D01*
X59146190Y-105775238D02*
X59241428Y-105870476D01*
X59241428Y-105870476D02*
X59289047Y-106060952D01*
X59289047Y-106060952D02*
X59289047Y-106394285D01*
X59289047Y-106394285D02*
X59241428Y-106584761D01*
X59241428Y-106584761D02*
X59146190Y-106680000D01*
X59146190Y-106680000D02*
X59050952Y-106727619D01*
X59050952Y-106727619D02*
X58860476Y-106727619D01*
X58860476Y-106727619D02*
X58765238Y-106680000D01*
X58765238Y-106680000D02*
X58670000Y-106584761D01*
X58670000Y-106584761D02*
X58622381Y-106394285D01*
X58622381Y-106394285D02*
X58622381Y-106060952D01*
X58622381Y-106060952D02*
X58670000Y-105870476D01*
X58670000Y-105870476D02*
X58765238Y-105775238D01*
X58765238Y-105775238D02*
X58860476Y-105727619D01*
X60241428Y-106727619D02*
X59670000Y-106727619D01*
X59955714Y-106727619D02*
X59955714Y-105727619D01*
X59955714Y-105727619D02*
X59860476Y-105870476D01*
X59860476Y-105870476D02*
X59765238Y-105965714D01*
X59765238Y-105965714D02*
X59670000Y-106013333D01*
X61098571Y-105727619D02*
X60908095Y-105727619D01*
X60908095Y-105727619D02*
X60812857Y-105775238D01*
X60812857Y-105775238D02*
X60765238Y-105822857D01*
X60765238Y-105822857D02*
X60670000Y-105965714D01*
X60670000Y-105965714D02*
X60622381Y-106156190D01*
X60622381Y-106156190D02*
X60622381Y-106537142D01*
X60622381Y-106537142D02*
X60670000Y-106632380D01*
X60670000Y-106632380D02*
X60717619Y-106680000D01*
X60717619Y-106680000D02*
X60812857Y-106727619D01*
X60812857Y-106727619D02*
X61003333Y-106727619D01*
X61003333Y-106727619D02*
X61098571Y-106680000D01*
X61098571Y-106680000D02*
X61146190Y-106632380D01*
X61146190Y-106632380D02*
X61193809Y-106537142D01*
X61193809Y-106537142D02*
X61193809Y-106299047D01*
X61193809Y-106299047D02*
X61146190Y-106203809D01*
X61146190Y-106203809D02*
X61098571Y-106156190D01*
X61098571Y-106156190D02*
X61003333Y-106108571D01*
X61003333Y-106108571D02*
X60812857Y-106108571D01*
X60812857Y-106108571D02*
X60717619Y-106156190D01*
X60717619Y-106156190D02*
X60670000Y-106203809D01*
X60670000Y-106203809D02*
X60622381Y-106299047D01*
D11*
%TO.C,Q1*%
X57797500Y-78056500D02*
X57797500Y-76381500D01*
X57797500Y-78056500D02*
X57797500Y-78706500D01*
X54677500Y-78056500D02*
X54677500Y-77406500D01*
X54677500Y-78056500D02*
X54677500Y-78706500D01*
%TO.C,F1*%
X69555000Y-85134000D02*
X69555000Y-86484000D01*
X69555000Y-90634000D02*
X69555000Y-89284000D01*
X73555000Y-85134000D02*
X69555000Y-85134000D01*
X73555000Y-85134000D02*
X73555000Y-86484000D01*
X73555000Y-90634000D02*
X69555000Y-90634000D01*
X73555000Y-90634000D02*
X73555000Y-89284000D01*
X84255000Y-85134000D02*
X84255000Y-86884000D01*
X84255000Y-85384000D02*
X73555000Y-85384000D01*
X84255000Y-90384000D02*
X73555000Y-90384000D01*
X84255000Y-90634000D02*
X84255000Y-88884000D01*
X84255000Y-90634000D02*
X88255000Y-90634000D01*
X88255000Y-85134000D02*
X84255000Y-85134000D01*
X88255000Y-86884000D02*
X88255000Y-85134000D01*
X88255000Y-88884000D02*
X88255000Y-90634000D01*
%TO.C,R9*%
X85837500Y-81351224D02*
X85837500Y-80841776D01*
X86882500Y-81351224D02*
X86882500Y-80841776D01*
%TO.C,R8*%
X74534500Y-81431224D02*
X74534500Y-80921776D01*
X75579500Y-81431224D02*
X75579500Y-80921776D01*
%TO.C,C2*%
X57178752Y-72490000D02*
X56656248Y-72490000D01*
X57178752Y-71020000D02*
X56656248Y-71020000D01*
%TO.C,C1*%
X57432752Y-59536000D02*
X56910248Y-59536000D01*
X57432752Y-58066000D02*
X56910248Y-58066000D01*
%TO.C,R7*%
X67578500Y-80921776D02*
X67578500Y-81431224D01*
X66533500Y-80921776D02*
X66533500Y-81431224D01*
%TO.C,U1*%
X53740000Y-69099000D02*
X53740000Y-63089000D01*
X60560000Y-66849000D02*
X60560000Y-63089000D01*
X53740000Y-63089000D02*
X55000000Y-63089000D01*
X60560000Y-63089000D02*
X59300000Y-63089000D01*
%TO.C,J1*%
X89094000Y-67758000D02*
X90424000Y-67758000D01*
X89094000Y-69088000D02*
X89094000Y-67758000D01*
X89094000Y-70358000D02*
X89094000Y-83118000D01*
X89094000Y-70358000D02*
X91754000Y-70358000D01*
X89094000Y-83118000D02*
X91754000Y-83118000D01*
X91754000Y-70358000D02*
X91754000Y-83118000D01*
%TO.C,U4*%
X71592000Y-79529000D02*
X69792000Y-79529000D01*
X69792000Y-82749000D02*
X72242000Y-82749000D01*
%TO.C,R4*%
X56492224Y-75706500D02*
X55982776Y-75706500D01*
X56492224Y-74661500D02*
X55982776Y-74661500D01*
%TO.C,R5*%
X54849500Y-82701224D02*
X54849500Y-82191776D01*
X55894500Y-82701224D02*
X55894500Y-82191776D01*
%TO.C,C3*%
X53325752Y-90651000D02*
X52803248Y-90651000D01*
X53325752Y-89181000D02*
X52803248Y-89181000D01*
%TO.C,R1*%
X61072500Y-63604224D02*
X61072500Y-63094776D01*
X62117500Y-63604224D02*
X62117500Y-63094776D01*
%TO.C,U2*%
X83370000Y-79524000D02*
X81570000Y-79524000D01*
X81570000Y-82744000D02*
X84020000Y-82744000D01*
%TO.C,R10*%
X86374500Y-75540776D02*
X86374500Y-76050224D01*
X85329500Y-75540776D02*
X85329500Y-76050224D01*
%TO.C,Q2*%
X61615000Y-84393000D02*
X61615000Y-80943000D01*
X61615000Y-84393000D02*
X61615000Y-86343000D01*
X56495000Y-84393000D02*
X56495000Y-82443000D01*
X56495000Y-84393000D02*
X56495000Y-86343000D01*
%TO.C,J6*%
X91754000Y-64576000D02*
X90424000Y-64576000D01*
X91754000Y-63246000D02*
X91754000Y-64576000D01*
X91754000Y-61976000D02*
X91754000Y-59376000D01*
X91754000Y-61976000D02*
X89094000Y-61976000D01*
X91754000Y-59376000D02*
X89094000Y-59376000D01*
X89094000Y-61976000D02*
X89094000Y-59376000D01*
%TO.C,R6*%
X78627500Y-80921776D02*
X78627500Y-81431224D01*
X77582500Y-80921776D02*
X77582500Y-81431224D01*
%TO.C,R11*%
X87644500Y-70460776D02*
X87644500Y-70970224D01*
X86599500Y-70460776D02*
X86599500Y-70970224D01*
%TD*%
%LPC*%
D12*
%TO.C,Q1*%
X57187500Y-77119000D03*
X55287500Y-77119000D03*
X56237500Y-78994000D03*
%TD*%
D13*
%TO.C,F1*%
X68655000Y-87884000D03*
X74455000Y-87884000D03*
D14*
X83355000Y-87884000D03*
X89155000Y-87884000D03*
%TD*%
D15*
%TO.C,J3*%
X64765000Y-97409000D03*
D16*
X69845000Y-97409000D03*
%TD*%
D17*
%TO.C,R9*%
X86360000Y-82009000D03*
X86360000Y-80184000D03*
%TD*%
D15*
%TO.C,J2*%
X54605000Y-97409000D03*
D16*
X59685000Y-97409000D03*
%TD*%
D17*
%TO.C,R8*%
X75057000Y-82089000D03*
X75057000Y-80264000D03*
%TD*%
D18*
%TO.C,C2*%
X57955000Y-71755000D03*
X55880000Y-71755000D03*
%TD*%
%TO.C,C1*%
X58209000Y-58801000D03*
X56134000Y-58801000D03*
%TD*%
D19*
%TO.C,H2*%
X93750000Y-113200000D03*
%TD*%
D20*
%TO.C,R7*%
X67056000Y-80264000D03*
X67056000Y-82089000D03*
%TD*%
D21*
%TO.C,U3*%
X63780000Y-58039000D03*
X63780000Y-59309000D03*
X63780000Y-60579000D03*
X63780000Y-61849000D03*
X63780000Y-63119000D03*
X63780000Y-64389000D03*
X63780000Y-65659000D03*
X63780000Y-66929000D03*
X63780000Y-68199000D03*
X63780000Y-69469000D03*
X63780000Y-70739000D03*
X63780000Y-72009000D03*
X63780000Y-73279000D03*
X63780000Y-74549000D03*
D22*
X66820000Y-75799000D03*
X68090000Y-75799000D03*
X69360000Y-75799000D03*
X70630000Y-75799000D03*
X71900000Y-75799000D03*
X73170000Y-75799000D03*
X74440000Y-75799000D03*
X75710000Y-75799000D03*
X76980000Y-75799000D03*
X78250000Y-75799000D03*
D21*
X81280000Y-74549000D03*
X81280000Y-73279000D03*
X81280000Y-72009000D03*
X81280000Y-70739000D03*
X81280000Y-69469000D03*
X81280000Y-68199000D03*
X81280000Y-66929000D03*
X81280000Y-65659000D03*
X81280000Y-64389000D03*
X81280000Y-63119000D03*
X81280000Y-61849000D03*
X81280000Y-60579000D03*
X81280000Y-59309000D03*
X81280000Y-58039000D03*
D23*
X69630000Y-65059000D03*
X69630000Y-66459000D03*
X70330000Y-64359000D03*
X70330000Y-65759000D03*
X70330000Y-67159000D03*
X71005000Y-65059000D03*
X71005000Y-66459000D03*
D24*
X71030000Y-65759000D03*
D23*
X71730000Y-64359000D03*
X71730000Y-65759000D03*
X71730000Y-67159000D03*
X72430000Y-65059000D03*
X72430000Y-66459000D03*
%TD*%
D25*
%TO.C,U1*%
X54850000Y-68149000D03*
X57150000Y-68149000D03*
D26*
X57150000Y-61849000D03*
D25*
X59450000Y-68149000D03*
%TD*%
D27*
%TO.C,J1*%
X90424000Y-69088000D03*
D28*
X90424000Y-71628000D03*
X90424000Y-74168000D03*
X90424000Y-76708000D03*
X90424000Y-79248000D03*
X90424000Y-81788000D03*
%TD*%
D29*
%TO.C,U4*%
X72042000Y-82089000D03*
X72042000Y-81139000D03*
X72042000Y-80189000D03*
X69342000Y-80189000D03*
X69342000Y-82089000D03*
%TD*%
D30*
%TO.C,R4*%
X57150000Y-75184000D03*
X55325000Y-75184000D03*
%TD*%
D17*
%TO.C,R5*%
X55372000Y-83359000D03*
X55372000Y-81534000D03*
%TD*%
D18*
%TO.C,C3*%
X54102000Y-89916000D03*
X52027000Y-89916000D03*
%TD*%
D15*
%TO.C,J5*%
X85090000Y-97409000D03*
D16*
X90170000Y-97409000D03*
%TD*%
D17*
%TO.C,R1*%
X61595000Y-64262000D03*
X61595000Y-62437000D03*
%TD*%
D29*
%TO.C,U2*%
X83820000Y-82084000D03*
X83820000Y-81134000D03*
X83820000Y-80184000D03*
X81120000Y-80184000D03*
X81120000Y-82084000D03*
%TD*%
D19*
%TO.C,H1*%
X51000000Y-53900000D03*
%TD*%
D20*
%TO.C,R10*%
X85852000Y-74883000D03*
X85852000Y-76708000D03*
%TD*%
D31*
%TO.C,Q2*%
X60960000Y-81918000D03*
X59690000Y-81918000D03*
X58420000Y-81918000D03*
X57150000Y-81918000D03*
X57150000Y-86868000D03*
X58420000Y-86868000D03*
X59690000Y-86868000D03*
X60960000Y-86868000D03*
%TD*%
D15*
%TO.C,J4*%
X74925000Y-97409000D03*
D16*
X80005000Y-97409000D03*
%TD*%
D27*
%TO.C,J6*%
X90424000Y-63246000D03*
D28*
X90424000Y-60706000D03*
%TD*%
D20*
%TO.C,R6*%
X78105000Y-80264000D03*
X78105000Y-82089000D03*
%TD*%
%TO.C,R11*%
X87122000Y-69803000D03*
X87122000Y-71628000D03*
%TD*%
M02*
