%TF.GenerationSoftware,KiCad,Pcbnew,7.0.1*%
%TF.CreationDate,2023-05-02T23:50:35+02:00*%
%TF.ProjectId,espilepsy,65737069-6c65-4707-9379-2e6b69636164,rev?*%
%TF.SameCoordinates,Original*%
%TF.FileFunction,Legend,Bot*%
%TF.FilePolarity,Positive*%
%FSLAX46Y46*%
G04 Gerber Fmt 4.6, Leading zero omitted, Abs format (unit mm)*
G04 Created by KiCad (PCBNEW 7.0.1) date 2023-05-02 23:50:35*
%MOMM*%
%LPD*%
G01*
G04 APERTURE LIST*
G04 Aperture macros list*
%AMRoundRect*
0 Rectangle with rounded corners*
0 $1 Rounding radius*
0 $2 $3 $4 $5 $6 $7 $8 $9 X,Y pos of 4 corners*
0 Add a 4 corners polygon primitive as box body*
4,1,4,$2,$3,$4,$5,$6,$7,$8,$9,$2,$3,0*
0 Add four circle primitives for the rounded corners*
1,1,$1+$1,$2,$3*
1,1,$1+$1,$4,$5*
1,1,$1+$1,$6,$7*
1,1,$1+$1,$8,$9*
0 Add four rect primitives between the rounded corners*
20,1,$1+$1,$2,$3,$4,$5,0*
20,1,$1+$1,$4,$5,$6,$7,0*
20,1,$1+$1,$6,$7,$8,$9,0*
20,1,$1+$1,$8,$9,$2,$3,0*%
G04 Aperture macros list end*
%ADD10C,0.150000*%
%ADD11C,0.120000*%
%ADD12RoundRect,0.575000X-0.575000X-0.575000X0.575000X-0.575000X0.575000X0.575000X-0.575000X0.575000X0*%
%ADD13C,2.300000*%
%ADD14R,2.600000X2.600000*%
%ADD15C,2.600000*%
%ADD16C,2.700000*%
%ADD17R,1.700000X1.700000*%
%ADD18O,1.700000X1.700000*%
%ADD19C,2.000000*%
G04 APERTURE END LIST*
D10*
G36*
X86677478Y-55708000D02*
G01*
X86677478Y-51852870D01*
X84246773Y-51852870D01*
X84246773Y-52398997D01*
X86053193Y-52398997D01*
X86053193Y-53491251D01*
X84583828Y-53491251D01*
X84583828Y-54031517D01*
X86053193Y-54031517D01*
X86053193Y-55156988D01*
X84246773Y-55156988D01*
X84246773Y-55708000D01*
X86677478Y-55708000D01*
G37*
G36*
X82451099Y-52337448D02*
G01*
X82495097Y-52337937D01*
X82537699Y-52339402D01*
X82578903Y-52341845D01*
X82618711Y-52345264D01*
X82694136Y-52355034D01*
X82763974Y-52368711D01*
X82828226Y-52386297D01*
X82886890Y-52407790D01*
X82939967Y-52433191D01*
X82987457Y-52462501D01*
X83029359Y-52495718D01*
X83065675Y-52532842D01*
X83096404Y-52573875D01*
X83121546Y-52618816D01*
X83141101Y-52667665D01*
X83155068Y-52720421D01*
X83163449Y-52777085D01*
X83166242Y-52837658D01*
X83164757Y-52884896D01*
X83160300Y-52929523D01*
X83152873Y-52971541D01*
X83142474Y-53010948D01*
X83129105Y-53047745D01*
X83106658Y-53092746D01*
X83078928Y-53133107D01*
X83045917Y-53168828D01*
X83007625Y-53199908D01*
X82997226Y-53206953D01*
X82961955Y-53227916D01*
X82919523Y-53249772D01*
X82869929Y-53272521D01*
X82832888Y-53288183D01*
X82792664Y-53304242D01*
X82749258Y-53320697D01*
X82702668Y-53337550D01*
X82652896Y-53354800D01*
X82599941Y-53372446D01*
X82543804Y-53390490D01*
X82484483Y-53408930D01*
X82421980Y-53427767D01*
X82356294Y-53447001D01*
X82287425Y-53466633D01*
X82251797Y-53476597D01*
X82180955Y-53496869D01*
X82112777Y-53517630D01*
X82047263Y-53538879D01*
X81984412Y-53560616D01*
X81924225Y-53582842D01*
X81866702Y-53605557D01*
X81811843Y-53628760D01*
X81759648Y-53652452D01*
X81710116Y-53676632D01*
X81663248Y-53701300D01*
X81619044Y-53726457D01*
X81577504Y-53752103D01*
X81538627Y-53778237D01*
X81502414Y-53804859D01*
X81468865Y-53831970D01*
X81437980Y-53859570D01*
X81409350Y-53888295D01*
X81382567Y-53919028D01*
X81357632Y-53951767D01*
X81334543Y-53986515D01*
X81313302Y-54023270D01*
X81293907Y-54062032D01*
X81276360Y-54102801D01*
X81260660Y-54145578D01*
X81246807Y-54190362D01*
X81234800Y-54237154D01*
X81224641Y-54285953D01*
X81216330Y-54336759D01*
X81209865Y-54389573D01*
X81205247Y-54444394D01*
X81202476Y-54501222D01*
X81201553Y-54560058D01*
X81202908Y-54634819D01*
X81206972Y-54707184D01*
X81213746Y-54777152D01*
X81223229Y-54844723D01*
X81235422Y-54909898D01*
X81250325Y-54972676D01*
X81267937Y-55033057D01*
X81288259Y-55091042D01*
X81311290Y-55146630D01*
X81337031Y-55199822D01*
X81365482Y-55250617D01*
X81396642Y-55299015D01*
X81430511Y-55345016D01*
X81467091Y-55388621D01*
X81506379Y-55429830D01*
X81548378Y-55468642D01*
X81592589Y-55505079D01*
X81638763Y-55539167D01*
X81686898Y-55570903D01*
X81736994Y-55600288D01*
X81789052Y-55627323D01*
X81843072Y-55652007D01*
X81899053Y-55674340D01*
X81956996Y-55694322D01*
X82016900Y-55711953D01*
X82078766Y-55727234D01*
X82142594Y-55740163D01*
X82208383Y-55750742D01*
X82276134Y-55758970D01*
X82345846Y-55764847D01*
X82417520Y-55768373D01*
X82491155Y-55769549D01*
X82551269Y-55769110D01*
X82612177Y-55767793D01*
X82673879Y-55765599D01*
X82736375Y-55762527D01*
X82799664Y-55758577D01*
X82863748Y-55753749D01*
X82928625Y-55748044D01*
X82994295Y-55741461D01*
X83060760Y-55734000D01*
X83128018Y-55725661D01*
X83196071Y-55716445D01*
X83264916Y-55706351D01*
X83334556Y-55695379D01*
X83404990Y-55683529D01*
X83476217Y-55670802D01*
X83548238Y-55657197D01*
X83751448Y-55618118D01*
X83688922Y-55116932D01*
X83641829Y-55123183D01*
X83595438Y-55129236D01*
X83549749Y-55135090D01*
X83504763Y-55140745D01*
X83460479Y-55146203D01*
X83416897Y-55151462D01*
X83374017Y-55156522D01*
X83331839Y-55161384D01*
X83290364Y-55166048D01*
X83249590Y-55170513D01*
X83209519Y-55174779D01*
X83170150Y-55178847D01*
X83093519Y-55186388D01*
X83019697Y-55193136D01*
X82948683Y-55199089D01*
X82880478Y-55204249D01*
X82815082Y-55208614D01*
X82752495Y-55212187D01*
X82692717Y-55214965D01*
X82635747Y-55216949D01*
X82581586Y-55218140D01*
X82530234Y-55218537D01*
X82487318Y-55217932D01*
X82445764Y-55216117D01*
X82405573Y-55213093D01*
X82329277Y-55203415D01*
X82258432Y-55188898D01*
X82193036Y-55169541D01*
X82133089Y-55145346D01*
X82078593Y-55116312D01*
X82029546Y-55082438D01*
X81985948Y-55043726D01*
X81947801Y-55000174D01*
X81915103Y-54951784D01*
X81887854Y-54898554D01*
X81866056Y-54840485D01*
X81849707Y-54777577D01*
X81838807Y-54709831D01*
X81833358Y-54637245D01*
X81832676Y-54599137D01*
X81834059Y-54554999D01*
X81838206Y-54513076D01*
X81845118Y-54473368D01*
X81858636Y-54423871D01*
X81877068Y-54378312D01*
X81900417Y-54336691D01*
X81928680Y-54299009D01*
X81961859Y-54265266D01*
X81989969Y-54242542D01*
X82022930Y-54220555D01*
X82062829Y-54198189D01*
X82109667Y-54175446D01*
X82163442Y-54152325D01*
X82203147Y-54136701D01*
X82245935Y-54120909D01*
X82291807Y-54104950D01*
X82340763Y-54088822D01*
X82392802Y-54072526D01*
X82447924Y-54056063D01*
X82506130Y-54039432D01*
X82567420Y-54022632D01*
X82631793Y-54005665D01*
X82699250Y-53988530D01*
X82767031Y-53970906D01*
X82832622Y-53952474D01*
X82896022Y-53933232D01*
X82957232Y-53913181D01*
X83016251Y-53892321D01*
X83073079Y-53870652D01*
X83127717Y-53848174D01*
X83180164Y-53824887D01*
X83230421Y-53800791D01*
X83278487Y-53775886D01*
X83324363Y-53750172D01*
X83368048Y-53723648D01*
X83409543Y-53696316D01*
X83448847Y-53668175D01*
X83485960Y-53639224D01*
X83520883Y-53609465D01*
X83553535Y-53578080D01*
X83584081Y-53544496D01*
X83612520Y-53508715D01*
X83638852Y-53470735D01*
X83663078Y-53430557D01*
X83685197Y-53388181D01*
X83705210Y-53343607D01*
X83723116Y-53296834D01*
X83738915Y-53247863D01*
X83752608Y-53196695D01*
X83764195Y-53143327D01*
X83773674Y-53087762D01*
X83781047Y-53029999D01*
X83786314Y-52970037D01*
X83789474Y-52907877D01*
X83790527Y-52843519D01*
X83789199Y-52779066D01*
X83785215Y-52716620D01*
X83778574Y-52656181D01*
X83769278Y-52597750D01*
X83757325Y-52541326D01*
X83742717Y-52486910D01*
X83725452Y-52434500D01*
X83705531Y-52384099D01*
X83682953Y-52335704D01*
X83657720Y-52289317D01*
X83629831Y-52244937D01*
X83599285Y-52202565D01*
X83566083Y-52162200D01*
X83530225Y-52123843D01*
X83491711Y-52087492D01*
X83450541Y-52053150D01*
X83406902Y-52020734D01*
X83361224Y-51990410D01*
X83313509Y-51962177D01*
X83263756Y-51936035D01*
X83211965Y-51911985D01*
X83158137Y-51890026D01*
X83102270Y-51870158D01*
X83044365Y-51852382D01*
X82984423Y-51836697D01*
X82922442Y-51823103D01*
X82858424Y-51811601D01*
X82792368Y-51802190D01*
X82724273Y-51794870D01*
X82654141Y-51789642D01*
X82581971Y-51786505D01*
X82507764Y-51785459D01*
X82452927Y-51785856D01*
X82396862Y-51787047D01*
X82339568Y-51789031D01*
X82281045Y-51791810D01*
X82221293Y-51795382D01*
X82160313Y-51799748D01*
X82098103Y-51804907D01*
X82034665Y-51810861D01*
X81969998Y-51817608D01*
X81904102Y-51825149D01*
X81836977Y-51833484D01*
X81768624Y-51842612D01*
X81699041Y-51852535D01*
X81628230Y-51863251D01*
X81556190Y-51874761D01*
X81482921Y-51887064D01*
X81286549Y-51921258D01*
X81337352Y-52427330D01*
X81386117Y-52421800D01*
X81433980Y-52416446D01*
X81480944Y-52411267D01*
X81527006Y-52406264D01*
X81572169Y-52401436D01*
X81616430Y-52396784D01*
X81659791Y-52392307D01*
X81702251Y-52388006D01*
X81743810Y-52383881D01*
X81784469Y-52379931D01*
X81824227Y-52376157D01*
X81901042Y-52369135D01*
X81974253Y-52362815D01*
X82043863Y-52357198D01*
X82109869Y-52352282D01*
X82172273Y-52348069D01*
X82231075Y-52344558D01*
X82286274Y-52341749D01*
X82337870Y-52339643D01*
X82385864Y-52338238D01*
X82430255Y-52337536D01*
X82451099Y-52337448D01*
G37*
G36*
X80542097Y-55708000D02*
G01*
X79917812Y-55708000D01*
X79917812Y-54509256D01*
X79129397Y-54509256D01*
X79088924Y-54508915D01*
X79049083Y-54507893D01*
X78971295Y-54503806D01*
X78896034Y-54496994D01*
X78823299Y-54487457D01*
X78753091Y-54475195D01*
X78685409Y-54460209D01*
X78620253Y-54442497D01*
X78557624Y-54422061D01*
X78497521Y-54398900D01*
X78439945Y-54373014D01*
X78384895Y-54344403D01*
X78332371Y-54313068D01*
X78282374Y-54279007D01*
X78234903Y-54242222D01*
X78189958Y-54202712D01*
X78147540Y-54160477D01*
X78107671Y-54115647D01*
X78070375Y-54068351D01*
X78035650Y-54018591D01*
X78003498Y-53966365D01*
X77973918Y-53911674D01*
X77946910Y-53854517D01*
X77922474Y-53794895D01*
X77900611Y-53732808D01*
X77881319Y-53668255D01*
X77864600Y-53601237D01*
X77850453Y-53531754D01*
X77838878Y-53459805D01*
X77829876Y-53385391D01*
X77823445Y-53308512D01*
X77821195Y-53269148D01*
X77819587Y-53229167D01*
X77818622Y-53188571D01*
X77818301Y-53147357D01*
X78460171Y-53147357D01*
X78460830Y-53197907D01*
X78462808Y-53246852D01*
X78466105Y-53294192D01*
X78470719Y-53339928D01*
X78476653Y-53384058D01*
X78483905Y-53426584D01*
X78492475Y-53467505D01*
X78502364Y-53506822D01*
X78513572Y-53544534D01*
X78539942Y-53615143D01*
X78571587Y-53679333D01*
X78608506Y-53737104D01*
X78650699Y-53788456D01*
X78698166Y-53833389D01*
X78750907Y-53871903D01*
X78808922Y-53903998D01*
X78872212Y-53929674D01*
X78940775Y-53948931D01*
X79014613Y-53961769D01*
X79053510Y-53965781D01*
X79093725Y-53968188D01*
X79135258Y-53968990D01*
X79917812Y-53968990D01*
X79917812Y-52393136D01*
X79135258Y-52393136D01*
X79113641Y-52393312D01*
X79071494Y-52394724D01*
X79030797Y-52397548D01*
X78972471Y-52404432D01*
X78917407Y-52414493D01*
X78865607Y-52427730D01*
X78817069Y-52444145D01*
X78771795Y-52463737D01*
X78729783Y-52486506D01*
X78691034Y-52512452D01*
X78655548Y-52541575D01*
X78623325Y-52573875D01*
X78594168Y-52609461D01*
X78567878Y-52648808D01*
X78544457Y-52691916D01*
X78523903Y-52738785D01*
X78506218Y-52789415D01*
X78491400Y-52843806D01*
X78483115Y-52882156D01*
X78476104Y-52922177D01*
X78470368Y-52963870D01*
X78465907Y-53007235D01*
X78462720Y-53052271D01*
X78460808Y-53098978D01*
X78460171Y-53147357D01*
X77818301Y-53147357D01*
X77819581Y-53067716D01*
X77823422Y-52990603D01*
X77829824Y-52916018D01*
X77838787Y-52843962D01*
X77850310Y-52774434D01*
X77864394Y-52707434D01*
X77881039Y-52642963D01*
X77900244Y-52581019D01*
X77922011Y-52521604D01*
X77946338Y-52464718D01*
X77973225Y-52410359D01*
X78002674Y-52358529D01*
X78034683Y-52309228D01*
X78069253Y-52262454D01*
X78106383Y-52218209D01*
X78146075Y-52176492D01*
X78188327Y-52137304D01*
X78233140Y-52100643D01*
X78280513Y-52066511D01*
X78330448Y-52034908D01*
X78382943Y-52005832D01*
X78437998Y-51979285D01*
X78495615Y-51955266D01*
X78555792Y-51933776D01*
X78618530Y-51914814D01*
X78683829Y-51898380D01*
X78751688Y-51884474D01*
X78822109Y-51873097D01*
X78895089Y-51864248D01*
X78970631Y-51857927D01*
X79048733Y-51854135D01*
X79129397Y-51852870D01*
X80542097Y-51852870D01*
X80542097Y-55708000D01*
G37*
G36*
X77305391Y-55708000D02*
G01*
X77305391Y-52894322D01*
X76691853Y-52894322D01*
X76691853Y-55708000D01*
X77305391Y-55708000D01*
G37*
G36*
X77305391Y-52415606D02*
G01*
X77305391Y-51768851D01*
X76691853Y-51768851D01*
X76691853Y-52415606D01*
X77305391Y-52415606D01*
G37*
G36*
X75922976Y-55708000D02*
G01*
X75922976Y-51723910D01*
X75309438Y-51723910D01*
X75309438Y-55708000D01*
X75922976Y-55708000D01*
G37*
G36*
X73531257Y-52834234D02*
G01*
X73604005Y-52838619D01*
X73674368Y-52845927D01*
X73742346Y-52856159D01*
X73807938Y-52869314D01*
X73871146Y-52885392D01*
X73931968Y-52904393D01*
X73990405Y-52926318D01*
X74046457Y-52951166D01*
X74100123Y-52978937D01*
X74151405Y-53009631D01*
X74200301Y-53043249D01*
X74246812Y-53079790D01*
X74290938Y-53119254D01*
X74332679Y-53161642D01*
X74372034Y-53206953D01*
X74409005Y-53255187D01*
X74443590Y-53306344D01*
X74475790Y-53360425D01*
X74505605Y-53417429D01*
X74533034Y-53477356D01*
X74558079Y-53540207D01*
X74580738Y-53605981D01*
X74601012Y-53674678D01*
X74618901Y-53746298D01*
X74634405Y-53820842D01*
X74647523Y-53898309D01*
X74658256Y-53978699D01*
X74666605Y-54062013D01*
X74672568Y-54148249D01*
X74676145Y-54237410D01*
X74677338Y-54329493D01*
X74677072Y-54376230D01*
X74676273Y-54422164D01*
X74674942Y-54467294D01*
X74673079Y-54511622D01*
X74670683Y-54555146D01*
X74667755Y-54597866D01*
X74664295Y-54639783D01*
X74660302Y-54680897D01*
X74655777Y-54721208D01*
X74650719Y-54760715D01*
X74639007Y-54837320D01*
X74625165Y-54910711D01*
X74609194Y-54980889D01*
X74591094Y-55047853D01*
X74570863Y-55111604D01*
X74548504Y-55172142D01*
X74524015Y-55229467D01*
X74497396Y-55283578D01*
X74468648Y-55334476D01*
X74437770Y-55382160D01*
X74404763Y-55426632D01*
X74369199Y-55468157D01*
X74330895Y-55507003D01*
X74289850Y-55543170D01*
X74246066Y-55576658D01*
X74199542Y-55607467D01*
X74150277Y-55635597D01*
X74098273Y-55661048D01*
X74043528Y-55683819D01*
X73986043Y-55703912D01*
X73925818Y-55721326D01*
X73862853Y-55736061D01*
X73797148Y-55748116D01*
X73728703Y-55757493D01*
X73657517Y-55764191D01*
X73583592Y-55768209D01*
X73506926Y-55769549D01*
X73444438Y-55769045D01*
X73380805Y-55767534D01*
X73316028Y-55765015D01*
X73250105Y-55761489D01*
X73183037Y-55756955D01*
X73114825Y-55751414D01*
X73045468Y-55744865D01*
X72974965Y-55737309D01*
X72903318Y-55728745D01*
X72830526Y-55719174D01*
X72756589Y-55708595D01*
X72681508Y-55697009D01*
X72605281Y-55684415D01*
X72566738Y-55677740D01*
X72527909Y-55670814D01*
X72488794Y-55663635D01*
X72449393Y-55656205D01*
X72409705Y-55648523D01*
X72369732Y-55640588D01*
X72381455Y-55184343D01*
X72538748Y-55201928D01*
X72591416Y-55205951D01*
X72643909Y-55209714D01*
X72696227Y-55213217D01*
X72748369Y-55216461D01*
X72800335Y-55219445D01*
X72852126Y-55222170D01*
X72903742Y-55224635D01*
X72955182Y-55226841D01*
X73006446Y-55228787D01*
X73057535Y-55230474D01*
X73108448Y-55231901D01*
X73159185Y-55233069D01*
X73209748Y-55233978D01*
X73260134Y-55234626D01*
X73310345Y-55235016D01*
X73360381Y-55235145D01*
X73385107Y-55234986D01*
X73433078Y-55233711D01*
X73479072Y-55231162D01*
X73523089Y-55227338D01*
X73565129Y-55222240D01*
X73605193Y-55215866D01*
X73661582Y-55203917D01*
X73713522Y-55189099D01*
X73761015Y-55171413D01*
X73804060Y-55150860D01*
X73842657Y-55127438D01*
X73876806Y-55101149D01*
X73906508Y-55071991D01*
X73924272Y-55050872D01*
X73948845Y-55016474D01*
X73970927Y-54978812D01*
X73990518Y-54937888D01*
X74007620Y-54893701D01*
X74022232Y-54846252D01*
X74034353Y-54795539D01*
X74043985Y-54741563D01*
X74051126Y-54684324D01*
X74054503Y-54644352D01*
X74056774Y-54602930D01*
X74057938Y-54560058D01*
X72314044Y-54560058D01*
X72274965Y-54121398D01*
X72275463Y-54087204D01*
X72876780Y-54087204D01*
X74063800Y-54087204D01*
X74062533Y-54038138D01*
X74060197Y-53990835D01*
X74056793Y-53945295D01*
X74052321Y-53901518D01*
X74046779Y-53859505D01*
X74040169Y-53819254D01*
X74032491Y-53780767D01*
X74018970Y-53726342D01*
X74003045Y-53675884D01*
X73984715Y-53629393D01*
X73963981Y-53586869D01*
X73940843Y-53548312D01*
X73915300Y-53513722D01*
X73896681Y-53492545D01*
X73866247Y-53463342D01*
X73832807Y-53437213D01*
X73796363Y-53414158D01*
X73756913Y-53394176D01*
X73714457Y-53377269D01*
X73668997Y-53363436D01*
X73620531Y-53352677D01*
X73569059Y-53344992D01*
X73514583Y-53340381D01*
X73457101Y-53338844D01*
X73418373Y-53339493D01*
X73362972Y-53342899D01*
X73310799Y-53349224D01*
X73261855Y-53358469D01*
X73216140Y-53370634D01*
X73173653Y-53385718D01*
X73134395Y-53403721D01*
X73098365Y-53424644D01*
X73065564Y-53448486D01*
X73035992Y-53475248D01*
X73009648Y-53504929D01*
X72985903Y-53538268D01*
X72964493Y-53576004D01*
X72945420Y-53618136D01*
X72928681Y-53664664D01*
X72914279Y-53715588D01*
X72902211Y-53770909D01*
X72895464Y-53810233D01*
X72889755Y-53851510D01*
X72885084Y-53894741D01*
X72881451Y-53939926D01*
X72878856Y-53987064D01*
X72877299Y-54036157D01*
X72876780Y-54087204D01*
X72275463Y-54087204D01*
X72276119Y-54042117D01*
X72279579Y-53965353D01*
X72285347Y-53891107D01*
X72293421Y-53819376D01*
X72303802Y-53750163D01*
X72316490Y-53683467D01*
X72331486Y-53619287D01*
X72348788Y-53557624D01*
X72368397Y-53498479D01*
X72390313Y-53441849D01*
X72414536Y-53387737D01*
X72441066Y-53336142D01*
X72469903Y-53287063D01*
X72501046Y-53240502D01*
X72534497Y-53196457D01*
X72570255Y-53154929D01*
X72608320Y-53115918D01*
X72648691Y-53079424D01*
X72691370Y-53045446D01*
X72736355Y-53013986D01*
X72783648Y-52985042D01*
X72833247Y-52958615D01*
X72885154Y-52934705D01*
X72939367Y-52913312D01*
X72995887Y-52894435D01*
X73054714Y-52878076D01*
X73115849Y-52864233D01*
X73179290Y-52852907D01*
X73245038Y-52844099D01*
X73313093Y-52837806D01*
X73383455Y-52834031D01*
X73456124Y-52832773D01*
X73531257Y-52834234D01*
G37*
G36*
X70406343Y-52833696D02*
G01*
X70449082Y-52836467D01*
X70492225Y-52841085D01*
X70535773Y-52847549D01*
X70579725Y-52855861D01*
X70624082Y-52866020D01*
X70668843Y-52878026D01*
X70714009Y-52891879D01*
X70759580Y-52907580D01*
X70805555Y-52925127D01*
X70851934Y-52944521D01*
X70898718Y-52965763D01*
X70945906Y-52988852D01*
X70993499Y-53013787D01*
X71041497Y-53040570D01*
X71089899Y-53069200D01*
X71089899Y-52894322D01*
X71697575Y-52894322D01*
X71697575Y-56917490D01*
X71084037Y-56917490D01*
X71084037Y-55719723D01*
X71046344Y-55725757D01*
X70990877Y-55734077D01*
X70936698Y-55741522D01*
X70883807Y-55748091D01*
X70832204Y-55753784D01*
X70781889Y-55758601D01*
X70732862Y-55762542D01*
X70685123Y-55765607D01*
X70638672Y-55767797D01*
X70593509Y-55769111D01*
X70549634Y-55769549D01*
X70508113Y-55769230D01*
X70467324Y-55768274D01*
X70427268Y-55766681D01*
X70387945Y-55764450D01*
X70311497Y-55758077D01*
X70237980Y-55749154D01*
X70167394Y-55737683D01*
X70099739Y-55723662D01*
X70035014Y-55707091D01*
X69973221Y-55687972D01*
X69914358Y-55666303D01*
X69858427Y-55642084D01*
X69805426Y-55615317D01*
X69755356Y-55586000D01*
X69708217Y-55554134D01*
X69664009Y-55519719D01*
X69622732Y-55482754D01*
X69584386Y-55443240D01*
X69566234Y-55422382D01*
X69531658Y-55377884D01*
X69499388Y-55329677D01*
X69469422Y-55277760D01*
X69441762Y-55222134D01*
X69416406Y-55162798D01*
X69393356Y-55099753D01*
X69372610Y-55032998D01*
X69354170Y-54962534D01*
X69338035Y-54888361D01*
X69330831Y-54849883D01*
X69324205Y-54810478D01*
X69318154Y-54770145D01*
X69312679Y-54728885D01*
X69307781Y-54686698D01*
X69303459Y-54643583D01*
X69299713Y-54599542D01*
X69296544Y-54554572D01*
X69293951Y-54508676D01*
X69291934Y-54461852D01*
X69290493Y-54414100D01*
X69289629Y-54365421D01*
X69289341Y-54315815D01*
X69289560Y-54272829D01*
X69913625Y-54272829D01*
X69913769Y-54305621D01*
X69914913Y-54369391D01*
X69917203Y-54430742D01*
X69920638Y-54489673D01*
X69925217Y-54546185D01*
X69930942Y-54600277D01*
X69937811Y-54651950D01*
X69945825Y-54701203D01*
X69954985Y-54748036D01*
X69965289Y-54792450D01*
X69976737Y-54834445D01*
X69989331Y-54874020D01*
X70010369Y-54928846D01*
X70033982Y-54978228D01*
X70060171Y-55022166D01*
X70069501Y-55035629D01*
X70100273Y-55073457D01*
X70135218Y-55107437D01*
X70174336Y-55137570D01*
X70217627Y-55163857D01*
X70265091Y-55186297D01*
X70316728Y-55204890D01*
X70372539Y-55219636D01*
X70412064Y-55227330D01*
X70453444Y-55233314D01*
X70496679Y-55237588D01*
X70541768Y-55240152D01*
X70588713Y-55241007D01*
X70622361Y-55240832D01*
X70672161Y-55239910D01*
X70721153Y-55238198D01*
X70769339Y-55235697D01*
X70816717Y-55232405D01*
X70863288Y-55228324D01*
X70909052Y-55223452D01*
X70954009Y-55217791D01*
X70998159Y-55211339D01*
X71041502Y-55204098D01*
X71084037Y-55196066D01*
X71084037Y-53536192D01*
X71000018Y-53496136D01*
X70966923Y-53481821D01*
X70917280Y-53462081D01*
X70867638Y-53444418D01*
X70817996Y-53428833D01*
X70768353Y-53415326D01*
X70718711Y-53403897D01*
X70669069Y-53394547D01*
X70619426Y-53387274D01*
X70569784Y-53382079D01*
X70520142Y-53378962D01*
X70470499Y-53377923D01*
X70436238Y-53378797D01*
X70370980Y-53385788D01*
X70310072Y-53399771D01*
X70253514Y-53420745D01*
X70201307Y-53448711D01*
X70153451Y-53483668D01*
X70109945Y-53525617D01*
X70070790Y-53574557D01*
X70035985Y-53630489D01*
X70005531Y-53693412D01*
X69979428Y-53763327D01*
X69968008Y-53800906D01*
X69957675Y-53840232D01*
X69948430Y-53881307D01*
X69940273Y-53924130D01*
X69933203Y-53968700D01*
X69927221Y-54015019D01*
X69922327Y-54063085D01*
X69918520Y-54112899D01*
X69915801Y-54164461D01*
X69914169Y-54217771D01*
X69913625Y-54272829D01*
X69289560Y-54272829D01*
X69289594Y-54266136D01*
X69290352Y-54217359D01*
X69291616Y-54169484D01*
X69293386Y-54122512D01*
X69295661Y-54076443D01*
X69298443Y-54031276D01*
X69301729Y-53987012D01*
X69305522Y-53943650D01*
X69309820Y-53901191D01*
X69314624Y-53859635D01*
X69319933Y-53818980D01*
X69325748Y-53779229D01*
X69338895Y-53702434D01*
X69354065Y-53629249D01*
X69371258Y-53559674D01*
X69390473Y-53493709D01*
X69411710Y-53431355D01*
X69434971Y-53372610D01*
X69460253Y-53317476D01*
X69487559Y-53265953D01*
X69516887Y-53218039D01*
X69548238Y-53173736D01*
X69581650Y-53132447D01*
X69617405Y-53093823D01*
X69655503Y-53057862D01*
X69695944Y-53024564D01*
X69738728Y-52993931D01*
X69783856Y-52965961D01*
X69831327Y-52940656D01*
X69881141Y-52918013D01*
X69933298Y-52898035D01*
X69987799Y-52880721D01*
X70044643Y-52866070D01*
X70103830Y-52854083D01*
X70165360Y-52844760D01*
X70229233Y-52838100D01*
X70295450Y-52834105D01*
X70364009Y-52832773D01*
X70406343Y-52833696D01*
G37*
G36*
X66739445Y-53473666D02*
G01*
X66780609Y-53468136D01*
X66821057Y-53462782D01*
X66860789Y-53457603D01*
X66899806Y-53452600D01*
X66975693Y-53443120D01*
X67048718Y-53434343D01*
X67118880Y-53426268D01*
X67186181Y-53418894D01*
X67250619Y-53412224D01*
X67312195Y-53406255D01*
X67370909Y-53400988D01*
X67426760Y-53396424D01*
X67479749Y-53392562D01*
X67529876Y-53389402D01*
X67577141Y-53386944D01*
X67621544Y-53385189D01*
X67663084Y-53384136D01*
X67701762Y-53383785D01*
X67756036Y-53384403D01*
X67807115Y-53386258D01*
X67855000Y-53389349D01*
X67899691Y-53393676D01*
X67941187Y-53399241D01*
X67991547Y-53408583D01*
X68036228Y-53420123D01*
X68075231Y-53433862D01*
X68115998Y-53454127D01*
X68149209Y-53478112D01*
X68176792Y-53506104D01*
X68202460Y-53544985D01*
X68217658Y-53581793D01*
X68227228Y-53622608D01*
X68231168Y-53667431D01*
X68231281Y-53676876D01*
X68228180Y-53722028D01*
X68218878Y-53762838D01*
X68203374Y-53799307D01*
X68176584Y-53837341D01*
X68147437Y-53864260D01*
X68112088Y-53886838D01*
X68104274Y-53890833D01*
X68067165Y-53906541D01*
X68019339Y-53922890D01*
X67976437Y-53935572D01*
X67927508Y-53948615D01*
X67872550Y-53962019D01*
X67832563Y-53971155D01*
X67789897Y-53980452D01*
X67744551Y-53989908D01*
X67696527Y-53999526D01*
X67645824Y-54009303D01*
X67592442Y-54019241D01*
X67536380Y-54029338D01*
X67507345Y-54034448D01*
X67449673Y-54044950D01*
X67394138Y-54056185D01*
X67340741Y-54068153D01*
X67289480Y-54080854D01*
X67240357Y-54094287D01*
X67193371Y-54108453D01*
X67148522Y-54123352D01*
X67105810Y-54138983D01*
X67065235Y-54155348D01*
X67026797Y-54172445D01*
X66990497Y-54190274D01*
X66940053Y-54218393D01*
X66894418Y-54248160D01*
X66853591Y-54279576D01*
X66841050Y-54290414D01*
X66805782Y-54325399D01*
X66773983Y-54365141D01*
X66745653Y-54409640D01*
X66720791Y-54458896D01*
X66699399Y-54512909D01*
X66687065Y-54551560D01*
X66676272Y-54592326D01*
X66667022Y-54635206D01*
X66659313Y-54680200D01*
X66653146Y-54727308D01*
X66648520Y-54776531D01*
X66645437Y-54827868D01*
X66643895Y-54881319D01*
X66643702Y-54908837D01*
X66644813Y-54963479D01*
X66648144Y-55016273D01*
X66653697Y-55067221D01*
X66661471Y-55116321D01*
X66671466Y-55163575D01*
X66683682Y-55208981D01*
X66698119Y-55252540D01*
X66714777Y-55294252D01*
X66733656Y-55334117D01*
X66754756Y-55372135D01*
X66778078Y-55408306D01*
X66803620Y-55442630D01*
X66831384Y-55475106D01*
X66861368Y-55505736D01*
X66893574Y-55534518D01*
X66928001Y-55561454D01*
X66964561Y-55586653D01*
X67003167Y-55610226D01*
X67043818Y-55632174D01*
X67086515Y-55652495D01*
X67131257Y-55671191D01*
X67178045Y-55688262D01*
X67226878Y-55703706D01*
X67277757Y-55717525D01*
X67330681Y-55729718D01*
X67385651Y-55740285D01*
X67442666Y-55749227D01*
X67501727Y-55756543D01*
X67562834Y-55762233D01*
X67625986Y-55766297D01*
X67691183Y-55768736D01*
X67758427Y-55769549D01*
X67801997Y-55769175D01*
X67846980Y-55768053D01*
X67893375Y-55766183D01*
X67941181Y-55763565D01*
X67990400Y-55760199D01*
X68041031Y-55756085D01*
X68093074Y-55751223D01*
X68146528Y-55745613D01*
X68201395Y-55739255D01*
X68257674Y-55732149D01*
X68315365Y-55724295D01*
X68374468Y-55715693D01*
X68434983Y-55706343D01*
X68496910Y-55696245D01*
X68560249Y-55685399D01*
X68625000Y-55673806D01*
X68798901Y-55646450D01*
X68776431Y-55133540D01*
X68734606Y-55139130D01*
X68693518Y-55144543D01*
X68653166Y-55149778D01*
X68613551Y-55154835D01*
X68574673Y-55159715D01*
X68499125Y-55168943D01*
X68426524Y-55177461D01*
X68356869Y-55185269D01*
X68290160Y-55192368D01*
X68226398Y-55198756D01*
X68165581Y-55204435D01*
X68107711Y-55209403D01*
X68052787Y-55213662D01*
X68000809Y-55217212D01*
X67951777Y-55220051D01*
X67905692Y-55222180D01*
X67862552Y-55223600D01*
X67822359Y-55224310D01*
X67803367Y-55224399D01*
X67748833Y-55223755D01*
X67697339Y-55221823D01*
X67648885Y-55218603D01*
X67603470Y-55214095D01*
X67561095Y-55208299D01*
X67521759Y-55201215D01*
X67474040Y-55189766D01*
X67431725Y-55176027D01*
X67394814Y-55159999D01*
X67378385Y-55151126D01*
X67341796Y-55125891D01*
X67311409Y-55095980D01*
X67287223Y-55061395D01*
X67269239Y-55022135D01*
X67257456Y-54978200D01*
X67251875Y-54929590D01*
X67251378Y-54908837D01*
X67253271Y-54868216D01*
X67260961Y-54822034D01*
X67274566Y-54780957D01*
X67294087Y-54744983D01*
X67319522Y-54714114D01*
X67350873Y-54688350D01*
X67372523Y-54675341D01*
X67408091Y-54659038D01*
X67454222Y-54642368D01*
X67495753Y-54629625D01*
X67543226Y-54616677D01*
X67596640Y-54603522D01*
X67635551Y-54594638D01*
X67677103Y-54585662D01*
X67721296Y-54576594D01*
X67768130Y-54567435D01*
X67817604Y-54558184D01*
X67869719Y-54548842D01*
X67924475Y-54539408D01*
X67952844Y-54534657D01*
X68009165Y-54524792D01*
X68063577Y-54514247D01*
X68116082Y-54503024D01*
X68166678Y-54491121D01*
X68215367Y-54478538D01*
X68262147Y-54465277D01*
X68307019Y-54451336D01*
X68349983Y-54436715D01*
X68391038Y-54421416D01*
X68430186Y-54405437D01*
X68467425Y-54388779D01*
X68502757Y-54371442D01*
X68552176Y-54344162D01*
X68597302Y-54315353D01*
X68625000Y-54295299D01*
X68663237Y-54262338D01*
X68697712Y-54224636D01*
X68728427Y-54182195D01*
X68755380Y-54135015D01*
X68778573Y-54083094D01*
X68791945Y-54045847D01*
X68803646Y-54006493D01*
X68813675Y-53965033D01*
X68822033Y-53921466D01*
X68828719Y-53875793D01*
X68833733Y-53828013D01*
X68837076Y-53778126D01*
X68838748Y-53726133D01*
X68838957Y-53699346D01*
X68837804Y-53645983D01*
X68834347Y-53594337D01*
X68828584Y-53544409D01*
X68820517Y-53496197D01*
X68810144Y-53449703D01*
X68797466Y-53404927D01*
X68782483Y-53361868D01*
X68765196Y-53320526D01*
X68745603Y-53280901D01*
X68723705Y-53242994D01*
X68699502Y-53206804D01*
X68672994Y-53172331D01*
X68644181Y-53139576D01*
X68613063Y-53108538D01*
X68579640Y-53079218D01*
X68543912Y-53051614D01*
X68506260Y-53025705D01*
X68467311Y-53001468D01*
X68427064Y-52978902D01*
X68385520Y-52958008D01*
X68342678Y-52938786D01*
X68298539Y-52921234D01*
X68253102Y-52905355D01*
X68206368Y-52891147D01*
X68158336Y-52878610D01*
X68109007Y-52867745D01*
X68058380Y-52858552D01*
X68006455Y-52851030D01*
X67953233Y-52845179D01*
X67898714Y-52841001D01*
X67842896Y-52838493D01*
X67785782Y-52837658D01*
X67740200Y-52838012D01*
X67693336Y-52839077D01*
X67645189Y-52840852D01*
X67595761Y-52843336D01*
X67545050Y-52846530D01*
X67493057Y-52850435D01*
X67439781Y-52855048D01*
X67385224Y-52860372D01*
X67329383Y-52866406D01*
X67272261Y-52873149D01*
X67213857Y-52880602D01*
X67154170Y-52888765D01*
X67093201Y-52897638D01*
X67030949Y-52907221D01*
X66967416Y-52917514D01*
X66902600Y-52928516D01*
X66728699Y-52961733D01*
X66739445Y-53473666D01*
G37*
G36*
X66364288Y-52894322D02*
G01*
X65761497Y-52894322D01*
X65165545Y-55184343D01*
X65013137Y-55184343D01*
X64417184Y-52894322D01*
X63809508Y-52894322D01*
X64878315Y-56917490D01*
X65480129Y-56917490D01*
X65143074Y-55708000D01*
X65626675Y-55708000D01*
X66364288Y-52894322D01*
G37*
X74580761Y-69235619D02*
X74009333Y-69235619D01*
X74295047Y-70235619D02*
X74295047Y-69235619D01*
X73675999Y-70235619D02*
X73675999Y-69235619D01*
X73675999Y-69235619D02*
X73437904Y-69235619D01*
X73437904Y-69235619D02*
X73295047Y-69283238D01*
X73295047Y-69283238D02*
X73199809Y-69378476D01*
X73199809Y-69378476D02*
X73152190Y-69473714D01*
X73152190Y-69473714D02*
X73104571Y-69664190D01*
X73104571Y-69664190D02*
X73104571Y-69807047D01*
X73104571Y-69807047D02*
X73152190Y-69997523D01*
X73152190Y-69997523D02*
X73199809Y-70092761D01*
X73199809Y-70092761D02*
X73295047Y-70188000D01*
X73295047Y-70188000D02*
X73437904Y-70235619D01*
X73437904Y-70235619D02*
X73675999Y-70235619D01*
X72485523Y-69235619D02*
X72295047Y-69235619D01*
X72295047Y-69235619D02*
X72199809Y-69283238D01*
X72199809Y-69283238D02*
X72104571Y-69378476D01*
X72104571Y-69378476D02*
X72056952Y-69568952D01*
X72056952Y-69568952D02*
X72056952Y-69902285D01*
X72056952Y-69902285D02*
X72104571Y-70092761D01*
X72104571Y-70092761D02*
X72199809Y-70188000D01*
X72199809Y-70188000D02*
X72295047Y-70235619D01*
X72295047Y-70235619D02*
X72485523Y-70235619D01*
X72485523Y-70235619D02*
X72580761Y-70188000D01*
X72580761Y-70188000D02*
X72675999Y-70092761D01*
X72675999Y-70092761D02*
X72723618Y-69902285D01*
X72723618Y-69902285D02*
X72723618Y-69568952D01*
X72723618Y-69568952D02*
X72675999Y-69378476D01*
X72675999Y-69378476D02*
X72580761Y-69283238D01*
X72580761Y-69283238D02*
X72485523Y-69235619D01*
X64420761Y-72537619D02*
X63849333Y-72537619D01*
X64135047Y-73537619D02*
X64135047Y-72537619D01*
X63515999Y-73537619D02*
X63515999Y-72537619D01*
X63515999Y-72537619D02*
X63277904Y-72537619D01*
X63277904Y-72537619D02*
X63135047Y-72585238D01*
X63135047Y-72585238D02*
X63039809Y-72680476D01*
X63039809Y-72680476D02*
X62992190Y-72775714D01*
X62992190Y-72775714D02*
X62944571Y-72966190D01*
X62944571Y-72966190D02*
X62944571Y-73109047D01*
X62944571Y-73109047D02*
X62992190Y-73299523D01*
X62992190Y-73299523D02*
X63039809Y-73394761D01*
X63039809Y-73394761D02*
X63135047Y-73490000D01*
X63135047Y-73490000D02*
X63277904Y-73537619D01*
X63277904Y-73537619D02*
X63515999Y-73537619D01*
X62515999Y-73537619D02*
X62515999Y-72537619D01*
X64420761Y-69235619D02*
X63849333Y-69235619D01*
X64135047Y-70235619D02*
X64135047Y-69235619D01*
X63515999Y-70235619D02*
X63515999Y-69235619D01*
X63515999Y-69235619D02*
X63182666Y-69949904D01*
X63182666Y-69949904D02*
X62849333Y-69235619D01*
X62849333Y-69235619D02*
X62849333Y-70235619D01*
X62420761Y-70188000D02*
X62277904Y-70235619D01*
X62277904Y-70235619D02*
X62039809Y-70235619D01*
X62039809Y-70235619D02*
X61944571Y-70188000D01*
X61944571Y-70188000D02*
X61896952Y-70140380D01*
X61896952Y-70140380D02*
X61849333Y-70045142D01*
X61849333Y-70045142D02*
X61849333Y-69949904D01*
X61849333Y-69949904D02*
X61896952Y-69854666D01*
X61896952Y-69854666D02*
X61944571Y-69807047D01*
X61944571Y-69807047D02*
X62039809Y-69759428D01*
X62039809Y-69759428D02*
X62230285Y-69711809D01*
X62230285Y-69711809D02*
X62325523Y-69664190D01*
X62325523Y-69664190D02*
X62373142Y-69616571D01*
X62373142Y-69616571D02*
X62420761Y-69521333D01*
X62420761Y-69521333D02*
X62420761Y-69426095D01*
X62420761Y-69426095D02*
X62373142Y-69330857D01*
X62373142Y-69330857D02*
X62325523Y-69283238D01*
X62325523Y-69283238D02*
X62230285Y-69235619D01*
X62230285Y-69235619D02*
X61992190Y-69235619D01*
X61992190Y-69235619D02*
X61849333Y-69283238D01*
X74580761Y-72791619D02*
X74009333Y-72791619D01*
X74295047Y-73791619D02*
X74295047Y-72791619D01*
X73104571Y-73696380D02*
X73152190Y-73744000D01*
X73152190Y-73744000D02*
X73295047Y-73791619D01*
X73295047Y-73791619D02*
X73390285Y-73791619D01*
X73390285Y-73791619D02*
X73533142Y-73744000D01*
X73533142Y-73744000D02*
X73628380Y-73648761D01*
X73628380Y-73648761D02*
X73675999Y-73553523D01*
X73675999Y-73553523D02*
X73723618Y-73363047D01*
X73723618Y-73363047D02*
X73723618Y-73220190D01*
X73723618Y-73220190D02*
X73675999Y-73029714D01*
X73675999Y-73029714D02*
X73628380Y-72934476D01*
X73628380Y-72934476D02*
X73533142Y-72839238D01*
X73533142Y-72839238D02*
X73390285Y-72791619D01*
X73390285Y-72791619D02*
X73295047Y-72791619D01*
X73295047Y-72791619D02*
X73152190Y-72839238D01*
X73152190Y-72839238D02*
X73104571Y-72886857D01*
X72675999Y-73791619D02*
X72675999Y-72791619D01*
X72104571Y-73791619D02*
X72533142Y-73220190D01*
X72104571Y-72791619D02*
X72675999Y-73363047D01*
G36*
X86664796Y-58578161D02*
G01*
X86479171Y-58578161D01*
X86127461Y-59838454D01*
X86015110Y-59838454D01*
X85649234Y-58578161D01*
X85474845Y-58578161D01*
X85885661Y-59985000D01*
X86254468Y-59985000D01*
X86664796Y-58578161D01*
G37*
G36*
X84334230Y-58127777D02*
G01*
X84334230Y-59985000D01*
X84506177Y-59985000D01*
X84506177Y-58319263D01*
X85001502Y-58651434D01*
X85083079Y-58516123D01*
X84497873Y-58127777D01*
X84334230Y-58127777D01*
G37*
D11*
%TO.C,TP1*%
X63938000Y-61468000D02*
G75*
G03*
X63938000Y-61468000I-1200000J0D01*
G01*
%TO.C,TP5*%
X71050000Y-69850000D02*
G75*
G03*
X71050000Y-69850000I-1200000J0D01*
G01*
%TO.C,TP3*%
X67748000Y-73152000D02*
G75*
G03*
X67748000Y-73152000I-1200000J0D01*
G01*
%TO.C,TP6*%
X54540000Y-62230000D02*
G75*
G03*
X54540000Y-62230000I-1200000J0D01*
G01*
%TO.C,TP4*%
X71050000Y-73152000D02*
G75*
G03*
X71050000Y-73152000I-1200000J0D01*
G01*
%TO.C,TP2*%
X67748000Y-69850000D02*
G75*
G03*
X67748000Y-69850000I-1200000J0D01*
G01*
%TD*%
%LPC*%
D12*
%TO.C,F1*%
X68655000Y-87884000D03*
X74455000Y-87884000D03*
D13*
X83355000Y-87884000D03*
X89155000Y-87884000D03*
%TD*%
D14*
%TO.C,J3*%
X64765000Y-97409000D03*
D15*
X69845000Y-97409000D03*
%TD*%
D14*
%TO.C,J2*%
X54605000Y-97409000D03*
D15*
X59685000Y-97409000D03*
%TD*%
D16*
%TO.C,H2*%
X93750000Y-113200000D03*
%TD*%
D17*
%TO.C,J1*%
X90424000Y-69088000D03*
D18*
X90424000Y-71628000D03*
X90424000Y-74168000D03*
X90424000Y-76708000D03*
X90424000Y-79248000D03*
X90424000Y-81788000D03*
%TD*%
D14*
%TO.C,J5*%
X85090000Y-97409000D03*
D15*
X90170000Y-97409000D03*
%TD*%
D16*
%TO.C,H1*%
X51000000Y-53900000D03*
%TD*%
D14*
%TO.C,J4*%
X74925000Y-97409000D03*
D15*
X80005000Y-97409000D03*
%TD*%
D17*
%TO.C,J6*%
X90424000Y-63246000D03*
D18*
X90424000Y-60706000D03*
%TD*%
D19*
%TO.C,TP1*%
X62738000Y-61468000D03*
%TD*%
%TO.C,TP5*%
X69850000Y-69850000D03*
%TD*%
%TO.C,TP3*%
X66548000Y-73152000D03*
%TD*%
%TO.C,TP6*%
X53340000Y-62230000D03*
%TD*%
%TO.C,TP4*%
X69850000Y-73152000D03*
%TD*%
%TO.C,TP2*%
X66548000Y-69850000D03*
%TD*%
M02*
