M48
; DRILL file {KiCad 7.0.1} date Tue May  2 23:51:26 2023
; FORMAT={-:-/ absolute / metric / decimal}
; #@! TF.CreationDate,2023-05-02T23:51:26+02:00
; #@! TF.GenerationSoftware,Kicad,Pcbnew,7.0.1
; #@! TF.FileFunction,Plated,1,2,PTH
FMAT,2
METRIC
; #@! TA.AperFunction,Plated,PTH,ComponentDrill
T1C0.300
; #@! TA.AperFunction,Plated,PTH,ViaDrill
T2C0.400
; #@! TA.AperFunction,Plated,PTH,ComponentDrill
T3C1.000
; #@! TA.AperFunction,Plated,PTH,ComponentDrill
T4C1.300
; #@! TA.AperFunction,Plated,PTH,ComponentDrill
T5C1.400
%
G90
G05
T1
X69.63Y-65.059
X69.63Y-66.459
X70.33Y-64.359
X70.33Y-65.759
X70.33Y-67.159
X71.005Y-65.059
X71.005Y-66.459
X71.73Y-64.359
X71.73Y-65.759
X71.73Y-67.159
X72.43Y-65.059
X72.43Y-66.459
T2
X47.244Y-58.166
X52.027Y-88.138
X52.027Y-91.694
X53.848Y-58.166
X54.61Y-79.756
X54.864Y-65.024
X55.626Y-86.106
X55.626Y-87.503
X57.15Y-73.914
X59.055Y-89.662
X60.452Y-60.96
X60.452Y-65.024
X60.96Y-78.232
X61.214Y-58.166
X61.468Y-59.944
X61.976Y-72.136
X62.484Y-87.63
X65.13Y-71.628
X65.278Y-74.676
X65.278Y-75.946
X65.532Y-58.166
X65.532Y-59.436
X65.532Y-60.706
X66.802Y-77.978
X68.326Y-74.422
X69.088Y-83.312
X71.628Y-74.422
X71.882Y-77.978
X72.39Y-58.166
X72.39Y-60.706
X74.676Y-92.837
X76.708Y-82.296
X76.962Y-77.978
X77.597Y-85.09
X78.232Y-73.914
X79.502Y-58.166
X79.502Y-59.436
X79.502Y-60.706
X80.01Y-85.09
X80.264Y-78.74
X82.804Y-77.47
X83.058Y-58.166
X83.566Y-67.056
X83.566Y-73.406
X87.884Y-73.406
X87.884Y-77.978
X87.884Y-81.28
X88.392Y-58.166
X88.392Y-65.532
X97.028Y-58.166
T3
X90.424Y-60.706
X90.424Y-63.246
X90.424Y-69.088
X90.424Y-71.628
X90.424Y-74.168
X90.424Y-76.708
X90.424Y-79.248
X90.424Y-81.788
T4
X68.655Y-87.884
X74.455Y-87.884
X83.355Y-87.884
X89.155Y-87.884
T5
X54.605Y-97.409
X59.685Y-97.409
X64.765Y-97.409
X69.845Y-97.409
X74.925Y-97.409
X80.005Y-97.409
X85.09Y-97.409
X90.17Y-97.409
T0
M30
